<svg id="Isolation_Mode" data-name="Isolation Mode" xmlns="http://www.w3.org/2000/svg" viewBox="0 0 148.97 179.33"><defs><style>.cls-1{fill:#a60034;}</style></defs><title>Dunham School Logo</title><path class="cls-1" d="M126.68,39C114.76,28.88,101,24.22,85.35,22.25V0h-2V22h0V30.2h0V58.14h-3.5V29.35h0V21.67h0V0l-5,4.25v17C70.51,21.08,66,21,61.44,21s-24.69.6-29.91.6C13.45,21.58,4.62,21,2,21c-.8,0-1.41.2-1.41,1V27.4c0,1.2.6,1.41,1.61,1.41h11c5.42,0,8,.8,8.63,5.62.4,3.41,1,31.92,1,37.14V86.63c0,15.66-.8,60.83-1.41,65-.4,3.21-2.61,4.82-6.42,4.82H1.61c-1,0-1.61.4-1.61,1.21v5.22c0,1,.4,1.41,1.41,1.41,2.81,0,10.84-.6,28.31-.6,9,0,24.29.6,36.94.6,2.45,0,5.21,0,8.2-.09v15.1l5-4.1V63.89h31l5-5.75H85.35V30.78c11.1,3.34,20.13,8.94,26.48,15.9,9.64,10.64,16.46,28.71,16.46,44.37,0,18.27-6.22,34.73-14.66,45.17a56.09,56.09,0,0,1-28.28,18.95V71.36h25.33v-2.3H83.35V175.23h2V163.54c14.24-1.57,30.87-6.28,43.74-20.5C142.34,128.59,149,113.33,149,90.24,149,67,139.73,50.29,126.68,39ZM74.85,58.14h-23l-5,5.75h28v5.17h-28v2.3h28v86a67,67,0,0,1-8.4.55c-10,0-18.07-2.21-21.28-6.42a18.85,18.85,0,0,1-3.41-11.24c-.2-12.45-.4-46.58-.4-49.19V76.79c0-3.21,0-29.51.2-37.95.2-4.42,1-7.63,3.81-9.44,3.41-2,11.64-2,16.06-2a87.51,87.51,0,0,1,13.42,1Z"/></svg>