<?xml version="1.0" encoding="utf-8"?>
<!-- Generator: Adobe Illustrator 20.1.0, SVG Export Plug-In . SVG Version: 6.00 Build 0)  -->
<!DOCTYPE svg PUBLIC "-//W3C//DTD SVG 1.1//EN" "http://www.w3.org/Graphics/SVG/1.1/DTD/svg11.dtd">
<svg version="1.1" id="Layer_1" xmlns="http://www.w3.org/2000/svg" xmlns:xlink="http://www.w3.org/1999/xlink" x="0px" y="0px"
	 viewBox="0 0 238.1 68" style="enable-background:new 0 0 238.1 68;" xml:space="preserve">
<style type="text/css">
	.st0{fill:#FFFFFF;}
</style>
<g>
	<path class="st0" d="M5.6,9.8c0-6.1-0.1-7-3.1-7.3L1.2,2.4C0.8,2,0.8,0.9,1.3,0.6C5.9,0.2,11,0,17.3,0c6.1,0,10.4,0.5,15.1,2.2
		C40,5,45.4,11.8,45.4,21.3c0,7.1-3.5,14.4-11.4,18.4c-4.5,2.3-10,3.1-15.9,3.1c-3.9,0-6.9-0.4-9.3-0.4c-2.4,0-5.3,0.1-8.1,0.2
		c-0.5-0.3-0.6-1.4-0.1-1.9L2,40.5c3-0.4,3.6-0.6,3.6-7.4V9.8z M13,30.7c0,6.2,0.4,9.5,7.2,9.5c11.4,0,16.5-8.1,16.5-18.9
		c0-12.7-7.4-18.8-18-18.8c-2.7,0-4.7,0.5-5.2,0.9C13.1,3.8,13,5.2,13,8.2V30.7z"/>
	<path class="st0" d="M50.8,15.6c0-5.5-0.5-5.6-2.9-6L47,9.5c-0.4-0.4-0.3-1.2,0.1-1.5c2.1,0.1,4.4,0.2,6.7,0.2
		c2.3,0,4.7-0.1,6.9-0.2c0.4,0.2,0.5,1.1,0.1,1.5l-1.1,0.2c-2.4,0.3-2.9,0.5-2.9,6v11.9c0,7.2,2.2,13.2,9.4,13.2
		c6.8,0,9.6-5.1,9.6-13v-6.5c0-3.9-0.1-8.7-1-10.2c-0.5-0.8-1.3-1.1-2.6-1.3l-1-0.2c-0.5-0.4-0.4-1.3,0.1-1.5C73,8.1,75,8.2,77,8.2
		c2.2,0,3.6-0.1,5.5-0.2c0.4,0.3,0.5,1.1,0.1,1.5l-1.1,0.3c-1,0.2-1.9,0.4-2.3,1.2c-0.7,1.6-0.7,6.1-0.7,10.2v6.2
		c0,4.7-0.7,9.1-3.4,12c-2.7,2.9-6.6,3.9-10.2,3.9c-4.9,0-8.3-1-10.7-3.3c-2.3-2.2-3.4-5.9-3.4-11.1V15.6z"/>
	<path class="st0" d="M115.6,33.6c0,1.6,0,7.7,0.2,8.9c-0.4,0.6-1.3,0.8-2,0.7c-0.8-1.1-2.1-2.6-5.9-6.8L95.8,22.5
		c-3.3-3.8-5-5.8-5.9-6.5c-0.2,0-0.2,0.6-0.2,3.3v10.1c0,3.9,0.1,8.7,0.9,10.2c0.5,0.8,1.3,1.1,2.6,1.3l1.1,0.2
		c0.5,0.4,0.4,1.3-0.1,1.5c-1.9-0.1-3.9-0.2-5.9-0.2c-2.2,0-3.6,0-5.4,0.2c-0.4-0.3-0.5-1.1-0.1-1.5l1.1-0.3c1-0.2,1.9-0.4,2.3-1.2
		C87,38,87,33.5,87,29.4V17.1c0-4,0.1-4.9-1.7-6.4c-0.6-0.5-2-0.9-2.7-1l-0.8-0.2C81.4,9.2,81.5,8.2,82,8c2,0.2,4.8,0.2,6.1,0.2
		c1.1,0,2.3-0.1,3.6-0.2c0.9,2.2,6.5,8.8,8.3,10.7l5.2,5.6c2.2,2.4,7,7.9,7.5,8.2c0.2-0.2,0.2-0.4,0.2-1.2V21.2c0-3.9,0-8.7-1-10.2
		c-0.5-0.8-1.3-1.1-2.6-1.3l-1.2-0.2c-0.5-0.4-0.4-1.3,0.1-1.5c2,0.1,3.9,0.2,6,0.2c2.2,0,3.6-0.1,5.4-0.2c0.4,0.3,0.5,1.1,0.1,1.5
		l-1.2,0.3c-1,0.2-1.9,0.4-2.2,1.2c-0.7,1.6-0.7,6.1-0.7,10.2V33.6z"/>
	<path class="st0" d="M135,25.8c-2.6,0-2.8,0.1-2.8,1.5v7.6c0,5.5,0.5,5.6,2.9,5.9l1.6,0.2c0.4,0.4,0.3,1.3-0.1,1.5
		c-2.7-0.1-5-0.2-7.3-0.2c-2.3,0-4.6,0-6.6,0.2c-0.4-0.2-0.5-1.1-0.1-1.5l0.7-0.1c2.4-0.4,2.9-0.5,2.9-6V15.6c0-5.5-0.5-5.6-2.9-6
		l-1.1-0.2c-0.4-0.3-0.3-1.3,0.1-1.5c2.3,0.1,4.7,0.2,7,0.2c2.3,0,4.6-0.1,6.6-0.2c0.4,0.2,0.5,1.2,0.1,1.5l-0.9,0.2
		c-2.4,0.4-2.9,0.5-2.9,6v6.3c0,1.5,0.2,1.6,2.8,1.6h12.1c2.6,0,2.8-0.1,2.8-1.6v-6.3c0-5.5-0.5-5.6-2.9-6l-1.1-0.2
		c-0.4-0.3-0.3-1.3,0.1-1.5c2.4,0.1,4.7,0.2,7,0.2c2.3,0,4.6-0.1,6.7-0.2c0.4,0.2,0.5,1.2,0.1,1.5l-0.9,0.2c-2.4,0.4-2.9,0.5-2.9,6
		v19.3c0,5.5,0.5,5.6,2.9,6L160,41c0.4,0.4,0.3,1.3-0.1,1.5c-2.3-0.1-4.6-0.2-6.9-0.2c-2.4,0-4.7,0-7,0.2c-0.4-0.2-0.5-1.1-0.1-1.5
		l1.1-0.2c2.4-0.3,2.9-0.5,2.9-6v-7.6c0-1.4-0.2-1.5-2.8-1.5H135z"/>
	<path class="st0" d="M171.4,29.7c-1.3,0-1.3,0-1.8,1.4l-2.1,6.2c-1,3.1-0.4,3.2,1.6,3.5l1.5,0.3c0.4,0.4,0.3,1.3-0.1,1.5
		c-1.7-0.1-3.6-0.1-5.8-0.2c-1.7,0-3.3,0-5.1,0.2c-0.4-0.3-0.4-1-0.1-1.5l1.6-0.3c1.5-0.3,2.1-0.7,2.9-2.4c0.6-1.3,1.5-3.5,2.5-6.3
		l7.1-18.5c0.6-1.7,1.1-2.9,1-3.8c1.8-0.4,3.5-2.5,3.6-2.5c0.4,0,0.7,0.2,0.9,0.4c0.8,2.3,1.5,4.8,2.3,7.1l7.5,21.7
		c1.2,3.5,1.5,3.8,4.1,4.3l0.8,0.2c0.4,0.4,0.4,1.2,0.1,1.5c-2.1-0.1-4-0.2-6.7-0.2c-2.2,0-4.5,0.1-6.3,0.2
		c-0.4-0.3-0.5-1.2-0.2-1.5l1.1-0.2c1.9-0.3,2.1-0.6,1.3-2.7l-2.4-7c-0.5-1.4-0.7-1.4-2.1-1.4H171.4z M177.9,27.4
		c1.5,0,1.7-0.1,1.2-1.3l-2.2-6.2c-0.9-2.7-1.2-3.9-1.5-4.3h-0.1c-0.2,0.4-0.7,1.9-1.6,4.3l-2.3,6.1c-0.5,1.5-0.4,1.5,0.8,1.5H177.9
		z"/>
	<path class="st0" d="M237.5,41c0.5,0.2,0.5,1.3-0.1,1.5c-2.2-0.1-4.3-0.2-6.3-0.2c-2.4,0-4.7,0-6.9,0.2c-0.4-0.2-0.6-1.2-0.1-1.5
		l1.4-0.3c2.1-0.4,2.2-0.7,2.2-4.3V15.3h-0.1c-1.4,2.9-2.1,4.4-3.1,6.5l-4.5,9.1c-1.8,3.6-4.4,9.4-5.3,11.8c-0.2,0.2-1,0.2-1.3,0
		c-0.9-2.8-3.1-7.9-4.3-10.5l-4.5-10c-1-2.2-2.5-5.6-3.1-7.2h-0.1c-0.1,2.5-0.3,6.7-0.4,8.9c-0.1,3.2-0.3,7.8-0.3,12
		c0,3.4,0.1,4.2,2.3,4.6l1.7,0.3c0.4,0.3,0.4,1.3-0.1,1.5c-1.9-0.1-3.5-0.2-5.4-0.2c-1.7,0-3.4,0-5.4,0.2c-0.5-0.3-0.5-1.2-0.2-1.5
		l0.9-0.1c2.5-0.3,2.9-1.1,3.3-4.3c0.4-3.3,0.6-6.6,0.9-12c0.2-3.5,0.5-7.8,0.5-11c0-2.4-0.8-3.5-2.8-3.8l-1.8-0.3
		c-0.3-0.4-0.3-1.3,0.2-1.5c1.6,0.1,3,0.2,4.9,0.2c1.8,0,3.6,0,5.5-0.2c0.2,3.1,1.5,5.8,2.9,8.6l5.5,12c0.4,0.9,1.8,3.8,2.5,5
		c0.8-1.5,1.7-3.3,2.9-5.8l4.8-10c1.7-3.4,3.3-6.5,4.2-9.9c1.4,0.1,2.9,0.2,4,0.2c2.2,0,4-0.1,5.4-0.2c0.6,0.2,0.7,1.2,0.2,1.5
		l-1.7,0.3c-2.3,0.4-2.8,1.2-2.8,3.9c0,7.7,0.1,15.3,0.5,23c0.2,3.5,0.7,3.8,2.4,4L237.5,41z"/>
</g>
<g>
	<path class="st0" d="M3.7,56.1c0.4-1.4,0.5-1.6-0.3-1.8l-0.3-0.1C3,54.2,3,54,3.2,53.9c0.3,0,0.5,0,0.8,0c0.3,0,0.6,0,0.9,0h2.9
		c1,0,1.7,0,2.1,0c-0.1,0.3-0.5,1.5-0.6,2c-0.1,0.1-0.3,0.1-0.4,0C9,55.1,9,54.7,8.3,54.5c-0.3-0.1-0.8-0.1-1.6-0.1H5.8
		c-0.4,0-0.5,0.1-0.6,0.5l-1,3.1c-0.1,0.4-0.2,0.4,0.3,0.4h0.8c1.4,0,1.7-0.1,2.1-0.7l0.2-0.5c0.1-0.1,0.3-0.1,0.4,0
		c-0.1,0.3-0.3,0.9-0.5,1.5c-0.2,0.6-0.3,1.1-0.4,1.5c-0.1,0.1-0.3,0.1-0.4,0v-0.4C6.7,59,6.3,59,5.2,59H4.4C4,59,4,59,3.8,59.4
		l-0.6,2c-0.3,0.8-0.4,1.4-0.3,1.7c0.1,0.2,0.4,0.3,1.7,0.3c1.7,0,2.3-0.1,3.2-1.6c0.1-0.1,0.3,0,0.3,0.1c-0.1,0.4-0.7,1.6-1,2
		c-0.5,0-1.1,0-1.7,0c-0.6,0-1.2,0-1.8,0H1.9c-0.6,0-1.1,0-1.8,0c-0.1-0.1-0.1-0.3,0-0.4l0.5,0c0.7-0.1,0.9-0.3,1.4-1.8L3.7,56.1z"
		/>
	<path class="st0" d="M15.1,55.1c0.3-0.9,0.3-1.1,0.1-1.3l-0.3-0.2c0-0.1,0-0.2,0-0.2c0.3-0.1,1.1-0.3,1.8-0.3l0.1,0.1
		c-0.3,0.8-0.5,1.4-1,2.7c-1.5,4.1-2.2,6.6-2.3,7c-0.1,0.2,0,0.3,0.1,0.3c0.2,0,1.2-0.8,1.7-1.4c0.1,0,0.2,0.1,0.2,0.2
		c-0.4,0.8-1.8,2.1-2.6,2.1c-0.3,0-0.5-0.2-0.5-0.5c0-0.2,0-0.4,0.2-0.9l0.5-1.5l-0.1,0c-1,1.4-2.2,2.9-3.7,2.9
		c-0.6,0-0.9-0.5-0.9-1.1c0-1.1,0.8-2.9,2-4c1-0.9,2-1.3,2.7-1.3c0.2,0,0.6,0.1,0.8,0.5L15.1,55.1z M12,58.9c-0.6,0.6-1.7,2-2.2,3
		c-0.5,1-0.5,1.2-0.5,1.4c0,0.2,0.2,0.3,0.3,0.3c0.2,0,1-0.3,2-1.4c1.2-1.2,1.6-2.1,1.8-2.9c0.2-0.6,0-1.1-0.4-1.1
		C12.8,58.2,12.4,58.5,12,58.9z"/>
	<path class="st0" d="M17.1,62.6c-0.1,0.4-0.1,0.5,0.1,0.5c0.2,0,0.8-0.5,1.6-1.3c1.4-1.4,2.2-3.1,2.7-4c0.3-0.1,0.7,0.1,0.7,0.3
		c-0.2,0.4-1.1,2.9-1.8,4.7c-0.1,0.2-0.1,0.4,0.1,0.4c0.3,0,1.1-0.7,1.5-1.2c0.1,0,0.3,0,0.3,0.2c-0.4,0.7-1.8,1.9-2.7,1.9
		c-0.2,0-0.5-0.3-0.4-0.5l1-2.8l0,0c-1.1,1.4-3,3.3-3.8,3.3c-0.6,0-0.7-0.6-0.4-1.3l1.4-3.7c0.1-0.3,0.1-0.4,0-0.4
		c-0.3,0-1.1,0.7-1.4,1c-0.2,0-0.3-0.1-0.3-0.2c0.4-0.6,1.9-1.8,2.6-1.8c0.2,0,0.5,0.2,0.5,0.5L17.1,62.6z"/>
	<path class="st0" d="M27.7,58.7c0,0.6-0.6,0.7-0.7,0.7c-0.2,0-0.3-0.1-0.3-0.3c0-0.4,0-0.8-0.5-0.8c-0.3,0-0.8,0.3-1.3,1
		c-0.5,0.7-1,2-1,3.1c0,0.8,0.3,1,0.7,1c0.5,0,1.1-0.4,1.6-0.9c0.2,0,0.2,0.1,0.2,0.3c-0.6,0.8-1.5,1.4-2.5,1.4
		c-0.6,0-1.1-0.4-1.1-1.6c0-1,0.6-2.7,1.9-3.9c0.6-0.6,1.3-0.9,2-0.9C27.3,57.8,27.7,58.2,27.7,58.7z"/>
	<path class="st0" d="M32.8,57.4c0.3-0.1,0.7,0,0.7,0.2c-0.2,0.6-1.5,3.9-2,5.3c-0.1,0.3,0,0.3,0.1,0.3c0.3,0,0.7-0.3,1.6-1
		c0.1,0,0.2,0.1,0.2,0.2c-0.6,0.8-1.7,1.7-2.5,1.7c-0.3,0-0.4-0.3-0.4-0.4c0-0.1,0-0.2,0.2-0.6l0.5-1.4l0,0
		c-1.1,1.3-2.6,2.4-3.3,2.4c-0.4,0-0.7-0.4-0.7-0.8c0-0.3,0.3-1.6,1.3-2.9c0.7-1,1.4-1.6,2-2c0.6-0.3,1-0.4,1.4-0.4
		c0.2,0,0.3,0,0.4,0.1c0.1,0,0.2,0.2,0.3,0.3L32.8,57.4z M30.2,59.1c-1,0.9-1.9,2.8-1.9,3.9c0,0.2,0.1,0.3,0.2,0.3
		c0.2,0,0.6-0.2,1.5-1c1.2-1.1,1.8-2.4,2-3.3c-0.1-0.3-0.4-0.5-0.8-0.5C30.9,58.5,30.7,58.7,30.2,59.1z"/>
	<path class="st0" d="M36.5,58.7l-1.4,4c-0.1,0.3,0,0.4,0.1,0.4c0.2,0,1.2-0.8,1.7-1.4c0.2,0,0.2,0.1,0.2,0.3
		c-0.8,1.3-2.3,2.2-2.9,2.2c-0.2,0-0.4-0.2-0.4-0.4c0-0.2,0.1-0.4,0.2-0.9l1.4-4.2h-1.2c0-0.2,0-0.4,0.2-0.4l1.2-0.2l0.8-1.5
		c0.2-0.1,0.5-0.1,0.6,0.1l-0.4,1.5h1.7c0.1,0.2,0,0.5-0.2,0.6H36.5z"/>
	<path class="st0" d="M39.7,59c0.1-0.2,0.1-0.3,0-0.3c-0.1,0-0.5,0.2-1.3,0.8c-0.1,0-0.2-0.1-0.2-0.3c0.8-1,2-1.5,2.5-1.5
		c0.1,0,0.2,0.1,0.2,0.1c0.1,0.1,0.1,0.2-0.1,0.7l-1.8,4.3c-0.1,0.2-0.1,0.3,0,0.3c0.3,0,1.1-0.5,1.6-1.1c0.1,0,0.2,0.1,0.2,0.3
		c-0.2,0.4-1.8,1.8-2.8,1.8c-0.1,0-0.2,0-0.2-0.1c-0.1-0.1-0.1-0.2-0.1-0.4L39.7,59z M41.5,55.2c0,0.5-0.3,0.9-0.8,0.9
		c-0.4,0-0.5-0.3-0.5-0.6c0-0.3,0.2-1,0.8-1C41.4,54.6,41.5,54.9,41.5,55.2z"/>
	<path class="st0" d="M43.5,61L43.5,61c1.1-1.6,2.6-3.3,3.8-3.3c0.6,0,0.8,0.3,0.8,0.8c0,0.2-0.1,0.7-0.2,1.1
		c-0.3,0.8-1.4,3.2-1.4,3.3c-0.1,0.2-0.1,0.3,0,0.3c0.3,0,1-0.5,1.4-1c0.2,0,0.2,0.1,0.2,0.2c-0.6,1-1.8,1.7-2.6,1.7
		c-0.1,0-0.4-0.2-0.4-0.4c0-0.1,0-0.2,0.4-1c0.3-0.7,0.9-2.2,1.2-3c0.1-0.3,0.3-0.8,0.3-1.1c0-0.2,0-0.4-0.2-0.4
		c-0.4,0-1.3,0.8-2.1,1.8c-0.8,1-1.4,2.2-2.3,3.8c-0.1,0.1-0.1,0.2-0.3,0.2c-0.2,0-0.6,0-0.4-0.4c0.1-0.2,1.7-4.6,1.8-4.8
		c0.1-0.2,0.1-0.3,0-0.3c-0.3,0-0.9,0.3-1.4,0.8c-0.1,0-0.2-0.1-0.2-0.2c0.6-0.8,1.5-1.4,2.3-1.4c0.4,0,0.5,0.3,0.4,0.6L43.5,61z"/>
	<path class="st0" d="M52.9,57.9C53,58,53.2,58,53.2,58c0.1,0,0.4,0,0.7-0.1c0.3-0.1,0.6-0.1,0.7-0.1c0.2,0,0.3,0.2,0.3,0.4
		c0,0.3-0.2,0.5-0.3,0.5c-0.1,0-0.4,0-0.5-0.1c-0.1,0-0.5-0.1-0.6-0.1c-0.1,0-0.2,0-0.1,0.1c0,0.1,0.1,0.4,0.1,0.6
		c0,1.2-0.9,2.4-1.9,3c-0.2,0.1-0.7,0.3-1.1,0.4c-0.2,0.1-0.3,0.3-0.3,0.5c0,0.2,0.1,0.5,0.5,0.7c0.3,0.2,0.9,0.6,1.5,0.9
		c0.9,0.5,1.1,1,1.1,1.5c0,0.8-1.2,1.8-3.7,1.8c-1.1,0-2.4-0.4-2.4-1.4c0-1.2,1.8-1.9,2.6-2.1c-0.4-0.3-0.5-0.5-0.5-0.7
		c0-0.3,0.5-0.9,0.7-1.2c-0.3-0.1-1.1-0.3-1.1-1.4c0-0.8,0.5-1.9,1.2-2.5c0.7-0.6,1.4-0.9,2.2-0.9C52.5,57.8,52.7,57.8,52.9,57.9z
		 M52.3,66.5c0-0.3-0.2-0.6-0.7-0.9c-0.6-0.4-1.2-0.7-1.4-0.8c-0.4,0-1,0.2-1.4,0.6c-0.4,0.3-0.6,0.6-0.6,1c0,0.7,1,1.2,2,1.2
		C51,67.5,52.3,67.2,52.3,66.5z M51.2,58.8c-0.6,0.7-1.4,2-1.4,2.8c0,0.3,0.2,0.5,0.5,0.5c0.2,0,0.6-0.1,1-0.6
		c0.8-1,1.4-2.3,1.4-2.8c0-0.3-0.2-0.5-0.5-0.5C52,58.2,51.7,58.3,51.2,58.8z"/>
	<path class="st0" d="M60.3,58.7l-1.4,4c-0.1,0.3,0,0.4,0.1,0.4c0.2,0,1.2-0.8,1.7-1.4c0.2,0,0.2,0.1,0.2,0.3
		c-0.8,1.3-2.3,2.2-2.9,2.2c-0.2,0-0.4-0.2-0.4-0.4c0-0.2,0.1-0.4,0.2-0.9l1.4-4.2h-1.2c0-0.2,0-0.4,0.2-0.4l1.2-0.2l0.8-1.5
		c0.2-0.1,0.5-0.1,0.6,0.1l-0.4,1.5h1.7c0.1,0.2,0,0.5-0.2,0.6H60.3z"/>
	<path class="st0" d="M65.9,53.2c-0.3,0.8-0.8,2.2-1.1,3.1l-1.6,4.5l0,0c1.1-1.5,1.8-2.1,2.4-2.5c0.5-0.4,1-0.6,1.4-0.6
		c0.7,0,0.9,0.5,0.9,1c0,1-0.6,2.6-1.2,3.5c-0.3,0.5-0.6,0.8-1,1.2c-0.5,0.5-0.9,0.6-1.1,0.6c-0.5,0-0.6-0.3-0.6-0.4
		c0-0.3,0.2-0.5,0.4-0.5c0.1,0,0.1,0,0.2,0.1c0.1,0.1,0.3,0.2,0.4,0.2c0.2,0,0.4-0.2,0.6-0.8c0.4-1,1.1-3.1,1.1-3.9
		c0-0.3-0.1-0.5-0.3-0.5c-0.2,0-0.5,0.2-0.8,0.4c-0.6,0.5-1.1,1-1.9,2c-0.7,0.9-1.4,2.4-1.8,3.1c-0.1,0.1-0.1,0.2-0.3,0.2
		c-0.2,0-0.6,0-0.4-0.4l2.9-8.5c0.3-1,0.4-1.2,0.2-1.4L64,53.7c0-0.1,0-0.1,0-0.2C64.3,53.3,65.3,53.1,65.9,53.2L65.9,53.2z"/>
	<path class="st0" d="M73.3,58.7c0,1.2-1.5,1.9-3.7,2.5c-0.1,0.3-0.2,0.7-0.2,1.3c0,0.5,0.3,0.9,0.7,0.9c0.5,0,0.9-0.3,1.6-0.9
		c0.1,0,0.2,0.1,0.2,0.3c-0.9,1.1-1.8,1.4-2.4,1.4c-0.9,0-1.2-0.8-1.2-1.6c0-1,0.6-2.8,2.3-4.1c0.8-0.6,1.4-0.7,1.8-0.7
		C72.9,57.8,73.3,58.3,73.3,58.7z M70.9,59c-0.6,0.6-0.9,1.3-1.1,1.8c1-0.3,1.5-0.6,2-1.1c0.5-0.4,0.6-0.9,0.6-1
		c0-0.2-0.1-0.3-0.3-0.3C71.8,58.2,71.4,58.4,70.9,59z"/>
	<path class="st0" d="M79.6,56.8c0.5-1.3,0.6-1.8,0.6-2c0-0.2-0.1-0.3-0.4-0.3l-0.7-0.1C79,54.2,79,54,79.1,53.9c0.7,0,1.2,0,1.7,0
		c0.3,0,0.7,0,1,0c-0.2,0.7-0.1,1.7,0.1,3l0.2,2c0.2,1.3,0.3,2.1,0.3,2.8h0c0.6-0.7,1.2-1.5,1.7-2.2l2.4-3.1
		c1.2-1.5,1.4-2.1,1.5-2.3c0.3,0,0.5,0,0.9,0c0.6,0,1.1,0,1.5,0c0.1,0.1,0.1,0.3,0,0.4l-0.3,0.1c-0.5,0.1-0.8,0.2-0.9,0.3
		c-0.2,0.2-0.4,0.7-0.7,1.9l-1.3,4.7c-0.3,1.1-0.4,1.7-0.4,1.9c0,0.2,0.2,0.4,0.6,0.4l0.5,0c0.1,0.1,0.1,0.3-0.1,0.4
		c-0.6,0-1.2,0-1.9,0c-0.6,0-1.3,0-1.8,0c-0.1-0.1-0.1-0.3,0-0.4l0.4,0c0.3,0,0.7-0.1,0.8-0.3c0.2-0.2,0.5-1,0.8-1.9l1.2-4
		c0.2-0.8,0.5-1.5,0.6-1.9l0,0c-0.2,0.3-0.6,0.8-1.4,1.8l-2.3,3c-0.9,1.1-1.8,2.3-2.4,3.4c-0.1,0.1-0.2,0-0.3-0.1
		c0-0.5-0.1-1.3-0.2-3.1l-0.5-5.1h0c-0.2,0.5-0.5,1.2-0.7,1.8l-1.1,3.1c-0.7,2-0.9,2.5-0.9,2.8c0,0.2,0.1,0.3,0.5,0.3l0.7,0.1
		c0.1,0.1,0,0.3,0,0.4c-0.4,0-1,0-1.7,0c-0.6,0-1.1,0-1.6,0c-0.1-0.1-0.1-0.3,0-0.4l0.4,0c0.3,0,0.7-0.1,0.9-0.4
		c0.2-0.3,0.9-1.8,1.8-4.3L79.6,56.8z"/>
	<path class="st0" d="M91.3,59c0.1-0.2,0.1-0.3,0-0.3c-0.1,0-0.5,0.2-1.3,0.8c-0.1,0-0.2-0.1-0.2-0.3c0.8-1,2-1.5,2.5-1.5
		c0.1,0,0.2,0.1,0.2,0.1c0.1,0.1,0.1,0.2-0.1,0.7l-1.8,4.3c-0.1,0.2-0.1,0.3,0,0.3c0.3,0,1.1-0.5,1.6-1.1c0.2,0,0.2,0.1,0.2,0.3
		c-0.2,0.4-1.8,1.8-2.8,1.8c-0.1,0-0.2,0-0.2-0.1c-0.1-0.1-0.1-0.2-0.1-0.4L91.3,59z M93.1,55.2c0,0.5-0.3,0.9-0.8,0.9
		c-0.4,0-0.5-0.3-0.5-0.6c0-0.3,0.2-1,0.8-1C92.9,54.6,93.1,54.9,93.1,55.2z"/>
	<path class="st0" d="M95.1,61L95.1,61c1.1-1.6,2.6-3.3,3.8-3.3c0.6,0,0.8,0.3,0.8,0.8c0,0.2-0.1,0.7-0.2,1.1
		c-0.3,0.8-1.4,3.2-1.4,3.3c-0.1,0.2-0.1,0.3,0,0.3c0.3,0,1-0.5,1.4-1c0.2,0,0.2,0.1,0.2,0.2c-0.6,1-1.8,1.7-2.6,1.7
		c-0.1,0-0.4-0.2-0.4-0.4c0-0.1,0-0.2,0.4-1c0.3-0.7,0.9-2.2,1.2-3c0.1-0.3,0.3-0.8,0.3-1.1c0-0.2,0-0.4-0.2-0.4
		c-0.4,0-1.3,0.8-2.1,1.8c-0.8,1-1.4,2.2-2.3,3.8c-0.1,0.1-0.1,0.2-0.3,0.2c-0.2,0-0.6,0-0.4-0.4c0.1-0.2,1.7-4.6,1.8-4.8
		c0.1-0.2,0.1-0.3,0-0.3c-0.3,0-0.9,0.3-1.4,0.8c-0.1,0-0.2-0.1-0.2-0.2c0.6-0.8,1.5-1.4,2.3-1.4c0.4,0,0.5,0.3,0.4,0.6L95.1,61z"/>
	<path class="st0" d="M106.6,55.1c0.3-0.9,0.3-1.1,0.1-1.3l-0.3-0.2c0-0.1,0-0.2,0-0.2c0.3-0.1,1.1-0.3,1.8-0.3l0.1,0.1
		c-0.3,0.8-0.5,1.4-1,2.7c-1.5,4.1-2.2,6.6-2.3,7c-0.1,0.2,0,0.3,0.1,0.3c0.2,0,1.2-0.8,1.7-1.4c0.1,0,0.2,0.1,0.2,0.2
		c-0.4,0.8-1.8,2.1-2.6,2.1c-0.3,0-0.5-0.2-0.5-0.5c0-0.2,0-0.4,0.2-0.9l0.5-1.5l-0.1,0c-1,1.4-2.2,2.9-3.6,2.9
		c-0.6,0-0.9-0.5-0.9-1.1c0-1.1,0.8-2.9,2-4c1-0.9,2-1.3,2.7-1.3c0.2,0,0.6,0.1,0.8,0.5L106.6,55.1z M103.6,58.9
		c-0.6,0.6-1.7,2-2.2,3c-0.5,1-0.5,1.2-0.5,1.4c0,0.2,0.2,0.3,0.3,0.3c0.2,0,1-0.3,2-1.4c1.2-1.2,1.6-2.1,1.8-2.9
		c0.2-0.6,0-1.1-0.4-1.1C104.4,58.2,103.9,58.5,103.6,58.9z"/>
	<path class="st0" d="M115.9,57.4c0.3-0.1,0.7,0,0.7,0.2c-0.2,0.6-1.5,3.9-2,5.3c-0.1,0.3,0,0.3,0.1,0.3c0.3,0,0.7-0.3,1.6-1
		c0.1,0,0.2,0.1,0.2,0.2c-0.6,0.8-1.7,1.7-2.5,1.7c-0.3,0-0.4-0.3-0.4-0.4c0-0.1,0-0.2,0.2-0.6l0.5-1.4l0,0
		c-1.1,1.3-2.6,2.4-3.3,2.4c-0.4,0-0.7-0.4-0.7-0.8c0-0.3,0.3-1.6,1.3-2.9c0.7-1,1.4-1.6,2-2c0.6-0.3,1-0.4,1.4-0.4
		c0.2,0,0.3,0,0.4,0.1c0.1,0,0.2,0.2,0.3,0.3L115.9,57.4z M113.2,59.1c-1,0.9-1.9,2.8-1.9,3.9c0,0.2,0.1,0.3,0.2,0.3
		c0.2,0,0.6-0.2,1.5-1c1.2-1.1,1.8-2.4,2-3.3c-0.1-0.3-0.4-0.5-0.8-0.5C114,58.5,113.7,58.7,113.2,59.1z"/>
	<path class="st0" d="M118.8,61L118.8,61c1.1-1.6,2.6-3.3,3.8-3.3c0.6,0,0.8,0.3,0.8,0.8c0,0.2-0.1,0.7-0.2,1.1
		c-0.3,0.8-1.4,3.2-1.4,3.3c-0.1,0.2-0.1,0.3,0,0.3c0.3,0,1-0.5,1.4-1c0.2,0,0.2,0.1,0.2,0.2c-0.6,1-1.8,1.7-2.6,1.7
		c-0.1,0-0.4-0.2-0.4-0.4c0-0.1,0-0.2,0.4-1c0.3-0.7,0.9-2.2,1.2-3c0.1-0.3,0.3-0.8,0.3-1.1c0-0.2,0-0.4-0.2-0.4
		c-0.4,0-1.3,0.8-2.1,1.8c-0.8,1-1.4,2.2-2.3,3.8c-0.1,0.1-0.1,0.2-0.3,0.2c-0.2,0-0.6,0-0.4-0.4c0.1-0.2,1.7-4.6,1.8-4.8
		c0.1-0.2,0.1-0.3,0-0.3c-0.3,0-0.9,0.3-1.4,0.8c-0.1,0-0.2-0.1-0.2-0.2c0.6-0.8,1.5-1.4,2.3-1.4c0.4,0,0.5,0.3,0.4,0.6L118.8,61z"
		/>
	<path class="st0" d="M130.4,55.1c0.3-0.9,0.3-1.1,0.1-1.3l-0.3-0.2c0-0.1,0-0.2,0-0.2c0.3-0.1,1.1-0.3,1.8-0.3l0.1,0.1
		c-0.3,0.8-0.5,1.4-1,2.7c-1.5,4.1-2.2,6.6-2.3,7c-0.1,0.2,0,0.3,0.1,0.3c0.2,0,1.2-0.8,1.7-1.4c0.1,0,0.2,0.1,0.2,0.2
		c-0.4,0.8-1.8,2.1-2.6,2.1c-0.3,0-0.5-0.2-0.5-0.5c0-0.2,0-0.4,0.2-0.9l0.5-1.5l-0.1,0c-1,1.4-2.2,2.9-3.7,2.9
		c-0.6,0-0.9-0.5-0.9-1.1c0-1.1,0.8-2.9,2-4c1-0.9,2-1.3,2.7-1.3c0.2,0,0.6,0.1,0.8,0.5L130.4,55.1z M127.3,58.9
		c-0.6,0.6-1.7,2-2.2,3c-0.5,1-0.5,1.2-0.5,1.4c0,0.2,0.2,0.3,0.3,0.3c0.2,0,1-0.3,2-1.4c1.2-1.2,1.6-2.1,1.8-2.9
		c0.2-0.6,0-1.1-0.4-1.1C128.1,58.2,127.7,58.5,127.3,58.9z"/>
	<path class="st0" d="M137,58.7l-1.4,4c-0.1,0.3,0,0.4,0.1,0.4c0.2,0,1.2-0.8,1.7-1.4c0.2,0,0.2,0.1,0.2,0.3
		c-0.8,1.3-2.3,2.2-2.9,2.2c-0.2,0-0.4-0.2-0.4-0.4c0-0.2,0.1-0.4,0.2-0.9l1.4-4.2h-1.2c0-0.2,0-0.4,0.2-0.4l1.2-0.2l0.8-1.5
		c0.2-0.1,0.5-0.1,0.6,0.1l-0.4,1.5h1.7c0.1,0.2,0,0.5-0.2,0.6H137z"/>
	<path class="st0" d="M142.6,53.2c-0.3,0.8-0.8,2.2-1.1,3.1l-1.6,4.5l0,0c1.1-1.5,1.8-2.1,2.4-2.5c0.5-0.4,1-0.6,1.4-0.6
		c0.7,0,0.9,0.5,0.9,1c0,1-0.6,2.6-1.2,3.5c-0.3,0.5-0.6,0.8-1,1.2c-0.5,0.5-0.9,0.6-1.1,0.6c-0.5,0-0.6-0.3-0.6-0.4
		c0-0.3,0.2-0.5,0.4-0.5c0.1,0,0.1,0,0.2,0.1c0.1,0.1,0.3,0.2,0.4,0.2c0.2,0,0.4-0.2,0.6-0.8c0.4-1,1.1-3.1,1.1-3.9
		c0-0.3-0.1-0.5-0.3-0.5c-0.2,0-0.5,0.2-0.8,0.4c-0.6,0.5-1.1,1-1.9,2c-0.7,0.9-1.4,2.4-1.8,3.1c-0.1,0.1-0.1,0.2-0.3,0.2
		c-0.2,0-0.6,0-0.4-0.4l2.9-8.5c0.3-1,0.4-1.2,0.2-1.4l-0.3-0.2c0-0.1,0-0.1,0-0.2C141,53.3,142,53.1,142.6,53.2L142.6,53.2z"/>
	<path class="st0" d="M150,58.7c0,1.2-1.5,1.9-3.7,2.5c-0.1,0.3-0.2,0.7-0.2,1.3c0,0.5,0.3,0.9,0.7,0.9c0.5,0,0.9-0.3,1.6-0.9
		c0.1,0,0.2,0.1,0.2,0.3c-0.9,1.1-1.8,1.4-2.4,1.4c-0.9,0-1.2-0.8-1.2-1.6c0-1,0.6-2.8,2.3-4.1c0.8-0.6,1.4-0.7,1.8-0.7
		C149.6,57.8,150,58.3,150,58.7z M147.6,59c-0.6,0.6-0.9,1.3-1.1,1.8c1-0.3,1.5-0.6,2-1.1c0.5-0.4,0.6-0.9,0.6-1
		c0-0.2-0.1-0.3-0.3-0.3C148.5,58.2,148.1,58.4,147.6,59z"/>
	<path class="st0" d="M161.3,58.4c0.7,0,0.7,0,0.8-0.3l0.6-2c0.4-1.4,0.5-1.6-0.3-1.8l-0.4-0.1c-0.1-0.1-0.1-0.3,0.1-0.4
		c0.6,0,1.1,0,1.8,0c0.6,0,1.1,0,1.8,0c0.1,0.1,0.1,0.3,0,0.4l-0.4,0.1c-0.9,0.1-0.9,0.3-1.4,1.8l-1.8,5.6c-0.4,1.4-0.5,1.7,0.3,1.8
		l0.4,0c0.1,0.2,0,0.3-0.1,0.4c-0.7,0-1.2,0-1.8,0c-0.6,0-1.1,0-1.8,0c-0.1-0.1-0.1-0.3,0-0.4l0.5,0c0.7-0.1,0.9-0.3,1.4-1.8
		l0.7-2.3c0.1-0.4,0.1-0.4-0.5-0.4H157c-0.5,0-0.5,0-0.6,0.4l-0.7,2.3c-0.4,1.4-0.5,1.7,0.3,1.8l0.5,0c0.1,0.1,0,0.3-0.1,0.4
		c-0.7,0-1.3,0-1.9,0c-0.6,0-1.1,0-1.6,0c-0.1-0.1-0.1-0.3,0-0.4l0.3,0c0.7-0.1,0.9-0.3,1.4-1.8l1.8-5.6c0.5-1.4,0.5-1.6-0.4-1.8
		l-0.4-0.1c-0.1-0.1-0.1-0.3,0.1-0.4c0.6,0,1.1,0,1.8,0c0.7,0,1.1,0,1.8,0c0.1,0.1,0.1,0.3,0,0.4l-0.3,0.1c-0.9,0.2-0.9,0.3-1.4,1.8
		l-0.6,2c-0.1,0.3-0.1,0.4,0.4,0.4H161.3z"/>
	<path class="st0" d="M169,58.7c0,1.2-1.5,1.9-3.7,2.5c-0.1,0.3-0.2,0.7-0.2,1.3c0,0.5,0.3,0.9,0.7,0.9c0.5,0,0.9-0.3,1.6-0.9
		c0.1,0,0.2,0.1,0.2,0.3c-0.9,1.1-1.8,1.4-2.4,1.4c-0.9,0-1.2-0.8-1.2-1.6c0-1,0.6-2.8,2.3-4.1c0.8-0.6,1.4-0.7,1.8-0.7
		C168.7,57.8,169,58.3,169,58.7z M166.6,59c-0.6,0.6-0.9,1.3-1.1,1.8c1-0.3,1.5-0.6,2-1.1c0.5-0.4,0.6-0.9,0.6-1
		c0-0.2-0.1-0.3-0.3-0.3C167.6,58.2,167.2,58.4,166.6,59z"/>
	<path class="st0" d="M174.3,57.4c0.3-0.1,0.7,0,0.7,0.2c-0.2,0.6-1.5,3.9-2,5.3c-0.1,0.3,0,0.3,0.1,0.3c0.3,0,0.7-0.3,1.6-1
		c0.1,0,0.2,0.1,0.2,0.2c-0.6,0.8-1.7,1.7-2.5,1.7c-0.3,0-0.4-0.3-0.4-0.4c0-0.1,0-0.2,0.2-0.6l0.5-1.4l0,0
		c-1.1,1.3-2.6,2.4-3.3,2.4c-0.4,0-0.7-0.4-0.7-0.8c0-0.3,0.3-1.6,1.3-2.9c0.7-1,1.4-1.6,2-2c0.6-0.3,1-0.4,1.4-0.4
		c0.2,0,0.3,0,0.4,0.1c0.1,0,0.2,0.2,0.3,0.3L174.3,57.4z M171.6,59.1c-1,0.9-1.9,2.8-1.9,3.9c0,0.2,0.1,0.3,0.2,0.3
		c0.2,0,0.6-0.2,1.5-1c1.2-1.1,1.8-2.4,2-3.3c-0.1-0.3-0.4-0.5-0.8-0.5C172.4,58.5,172.1,58.7,171.6,59.1z"/>
	<path class="st0" d="M177.8,59.2l-0.7,1.9h0.1c0.5-0.8,1.2-2.1,1.6-2.6c0.3-0.5,0.7-0.8,1.1-0.8c0.5,0,0.6,0.5,0.6,0.7
		c0,0.2-0.1,0.7-0.3,0.9c-0.2,0.2-0.4,0.2-0.5-0.1c-0.1-0.4-0.2-0.6-0.3-0.6c-0.1,0-0.3,0.1-0.5,0.5c-0.9,1.2-1.8,3-2.6,4.8
		c-0.1,0.1-0.1,0.2-0.3,0.2c-0.2,0-0.6-0.1-0.5-0.4c0.2-0.6,1.2-3.3,1.6-4.8c0-0.2,0-0.3-0.1-0.3c-0.4,0-0.8,0.4-1.1,0.8
		c-0.1,0-0.3-0.1-0.2-0.2c0.5-0.8,1.1-1.5,1.8-1.5C178.2,57.8,177.9,58.8,177.8,59.2z"/>
	<path class="st0" d="M182.9,58.7l-1.4,4c-0.1,0.3,0,0.4,0.1,0.4c0.2,0,1.2-0.8,1.7-1.4c0.2,0,0.2,0.1,0.2,0.3
		c-0.8,1.3-2.3,2.2-2.9,2.2c-0.2,0-0.4-0.2-0.4-0.4c0-0.2,0.1-0.4,0.2-0.9l1.4-4.2h-1.2c0-0.2,0-0.4,0.2-0.4l1.2-0.2l0.9-1.5
		c0.2-0.1,0.5-0.1,0.6,0.1l-0.4,1.5h1.6c0.1,0.2,0,0.5-0.2,0.6H182.9z"/>
	<path class="st0" d="M190.3,58.5c-0.1,0.3-0.2,0.7-0.4,1.4c-0.5,1.7-0.9,3.2-1.3,4.8c-0.4,1.4-0.9,2.1-1.2,2.4
		c-0.2,0.2-0.9,0.8-1.8,0.8c-0.8,0-1.1-0.5-1.1-0.7c0-0.3,0.2-0.6,0.3-0.7c0.1-0.1,0.3,0,0.3,0.1c0.4,0.4,0.8,0.6,1.1,0.6
		c0.3,0,0.6-0.1,1-1.3c0.7-2.4,1.2-5,2-7.5h-1.3c-0.2-0.1-0.1-0.4,0.1-0.6h1.3c0.4-1.4,0.8-2.5,1.7-3.6c0.8-0.9,1.5-1.3,2.4-1.3
		c0.6,0,1.2,0.4,1.2,1c0,0.4-0.4,0.9-0.7,0.9c-0.1,0-0.2-0.1-0.2-0.2c0-0.8-0.5-1.1-0.8-1.1c-0.3,0-0.7,0.3-1.1,0.8
		c-0.7,1-1,2.1-1.4,3.5h1.9c0.1,0.2,0.1,0.4-0.2,0.6H190.3z"/>
	<path class="st0" d="M196.3,59.7c0,0.8-0.5,2.3-1.6,3.4c-0.9,1-1.8,1-2.2,1c-1,0-1.6-0.7-1.5-2c0.1-0.9,0.6-2.4,1.6-3.4
		c0.8-0.8,1.5-1,2.1-1C195.9,57.8,196.4,58.6,196.3,59.7z M193.6,58.9c-0.9,1.2-1.5,3-1.5,3.8c0,0.5,0.2,1,0.6,1
		c0.3,0,0.7-0.1,1.2-0.8c0.7-0.9,1.4-2.9,1.4-3.7c0-0.5-0.1-1-0.6-1C194.4,58.2,194,58.3,193.6,58.9z"/>
	<path class="st0" d="M199.3,59.2l-0.7,1.9h0.1c0.5-0.8,1.2-2.1,1.6-2.6c0.3-0.5,0.7-0.8,1.1-0.8c0.5,0,0.6,0.5,0.6,0.7
		c0,0.2-0.1,0.7-0.3,0.9c-0.2,0.2-0.4,0.2-0.5-0.1c-0.1-0.4-0.2-0.6-0.3-0.6c-0.1,0-0.3,0.1-0.5,0.5c-0.9,1.2-1.8,3-2.6,4.8
		c-0.1,0.1-0.1,0.2-0.3,0.2c-0.2,0-0.6-0.1-0.5-0.4c0.2-0.6,1.2-3.3,1.6-4.8c0-0.2,0-0.3-0.1-0.3c-0.4,0-0.8,0.4-1.1,0.8
		c-0.2,0-0.3-0.1-0.2-0.2c0.5-0.8,1.1-1.5,1.8-1.5C199.7,57.8,199.5,58.8,199.3,59.2z"/>
	<path class="st0" d="M215.6,54.2c-0.2,0.6-0.5,1.5-0.7,2c-0.1,0.1-0.4,0.1-0.4,0c0.3-1.3-0.1-2-1.7-2c-1.1,0-2.5,0.3-3.9,1.7
		c-0.8,0.8-1.8,2.5-1.8,4.5c0,2.1,1,3.3,2.9,3.3c1.6,0,2.5-0.9,3.3-2.1c0.2-0.1,0.3,0,0.4,0.1c-0.1,0.4-0.5,1.2-1,2.1
		c-0.3,0-0.7,0.1-1.2,0.2c-0.4,0.1-0.9,0.2-1.5,0.2c-2,0-4.2-0.9-4.2-4.1c0-1.8,0.9-3.4,2.2-4.6c1.3-1.2,3.1-1.8,5.1-1.8
		C214.3,53.7,215.2,54,215.6,54.2z"/>
	<path class="st0" d="M218.8,53.2c-0.3,0.8-0.8,2.2-1.1,3.1l-1.6,4.5l0,0c1.1-1.5,1.8-2.1,2.4-2.5c0.5-0.4,1-0.6,1.4-0.6
		c0.7,0,0.9,0.5,0.9,1c0,1-0.6,2.6-1.2,3.5c-0.3,0.5-0.6,0.8-1,1.2c-0.5,0.5-0.9,0.6-1.1,0.6c-0.5,0-0.6-0.3-0.6-0.4
		c0-0.3,0.2-0.5,0.4-0.5c0.1,0,0.1,0,0.2,0.1c0.1,0.1,0.3,0.2,0.4,0.2c0.2,0,0.4-0.2,0.6-0.8c0.4-1,1.1-3.1,1.1-3.9
		c0-0.3-0.1-0.5-0.3-0.5c-0.2,0-0.5,0.2-0.8,0.4c-0.6,0.5-1.1,1-1.9,2c-0.7,0.9-1.4,2.4-1.8,3.1c-0.1,0.1-0.1,0.2-0.3,0.2
		c-0.2,0-0.6,0-0.4-0.4l2.9-8.5c0.3-1,0.4-1.2,0.2-1.4l-0.3-0.2c0-0.1,0-0.1,0-0.2C217.2,53.3,218.2,53.1,218.8,53.2L218.8,53.2z"/>
	<path class="st0" d="M223.7,59.2l-0.6,1.9h0.1c0.5-0.8,1.2-2.1,1.6-2.6c0.3-0.5,0.7-0.8,1.1-0.8c0.5,0,0.6,0.5,0.6,0.7
		c0,0.2-0.1,0.7-0.3,0.9c-0.2,0.2-0.4,0.2-0.5-0.1c-0.1-0.4-0.2-0.6-0.3-0.6c-0.1,0-0.3,0.1-0.5,0.5c-0.9,1.2-1.8,3-2.6,4.8
		c-0.1,0.1-0.1,0.2-0.3,0.2c-0.2,0-0.6-0.1-0.5-0.4c0.2-0.6,1.2-3.3,1.6-4.8c0-0.2,0-0.3-0.1-0.3c-0.4,0-0.8,0.4-1.1,0.8
		c-0.2,0-0.3-0.1-0.2-0.2c0.5-0.8,1.1-1.5,1.8-1.5C224.1,57.8,223.9,58.8,223.7,59.2z"/>
	<path class="st0" d="M228,59c0.1-0.2,0.1-0.3,0-0.3c-0.1,0-0.5,0.2-1.3,0.8c-0.1,0-0.2-0.1-0.2-0.3c0.8-1,2-1.5,2.5-1.5
		c0.1,0,0.2,0.1,0.2,0.1c0.1,0.1,0.1,0.2-0.1,0.7l-1.8,4.3c-0.1,0.2-0.1,0.3,0,0.3c0.3,0,1.1-0.5,1.6-1.1c0.1,0,0.2,0.1,0.2,0.3
		c-0.2,0.4-1.8,1.8-2.8,1.8c-0.1,0-0.2,0-0.2-0.1c-0.1-0.1-0.1-0.2-0.1-0.4L228,59z M229.8,55.2c0,0.5-0.3,0.9-0.8,0.9
		c-0.4,0-0.5-0.3-0.5-0.6c0-0.3,0.2-1,0.8-1C229.7,54.6,229.8,54.9,229.8,55.2z"/>
	<path class="st0" d="M233.5,58.6c0,0.2-0.2,0.4-0.3,0.5c-0.1,0-0.2,0-0.3-0.1c-0.3-0.3-0.5-0.5-0.9-0.5c-0.4,0-0.6,0.4-0.6,0.6
		c0,0.3,0.1,0.6,0.5,1.4c0.4,0.6,0.6,1,0.6,1.7c0,0.4-0.2,1-0.8,1.5c-0.4,0.3-1,0.5-1.5,0.5c-0.6,0-0.9-0.5-0.9-0.8
		c0-0.2,0.1-0.3,0.2-0.5c0.1-0.1,0.3-0.1,0.4,0c0.2,0.2,0.7,0.6,1,0.6c0.4,0,0.7-0.4,0.7-0.9c0-0.3-0.2-0.7-0.6-1.3
		c-0.4-0.6-0.5-1.2-0.5-1.4c0-0.6,0.3-1,0.9-1.6c0.4-0.4,0.9-0.5,1.1-0.5C233.1,57.8,233.5,58.2,233.5,58.6z"/>
	<path class="st0" d="M236.2,58.7l-1.4,4c-0.1,0.3,0,0.4,0.1,0.4c0.2,0,1.2-0.8,1.7-1.4c0.2,0,0.2,0.1,0.2,0.3
		c-0.8,1.3-2.3,2.2-2.9,2.2c-0.2,0-0.4-0.2-0.4-0.4c0-0.2,0.1-0.4,0.2-0.9l1.4-4.2H234c0-0.2,0-0.4,0.2-0.4l1.2-0.2l0.8-1.5
		c0.2-0.1,0.5-0.1,0.6,0.1l-0.4,1.5h1.7c0.1,0.2,0,0.5-0.2,0.6H236.2z"/>
</g>
</svg>
