<svg xmlns="http://www.w3.org/2000/svg" viewBox="0 0 238.06 68.01"><defs><style>.cls-1{fill:#fff;}</style></defs><title>Asset 1</title><g id="Layer_2" data-name="Layer 2"><g id="Layer_1-2" data-name="Layer 1"><path class="cls-1" d="M5.61,9.79c0-6.14-.06-7-3.07-7.29L1.2,2.37A1.3,1.3,0,0,1,1.26.58C5.87.19,11,0,17.25,0c6.07,0,10.42.51,15.09,2.18C40,5,45.45,11.77,45.45,21.29A20.27,20.27,0,0,1,34,39.71c-4.54,2.3-10,3.07-15.86,3.07-3.9,0-6.91-.38-9.27-.38s-5.31.06-8.12.19c-.51-.25-.58-1.41-.13-1.85L2,40.54c3-.38,3.58-.57,3.58-7.35ZM13,30.69c0,6.2.45,9.53,7.22,9.53,11.38,0,16.5-8.06,16.5-18.86,0-12.66-7.35-18.8-18-18.8-2.69,0-4.73.51-5.18.9S13,5.18,13,8.18Z"/><path class="cls-1" d="M50.79,15.64c0-5.49-.47-5.6-2.9-6L47,9.48A1,1,0,0,1,47.11,8c2.07.1,4.41.16,6.69.16s4.67-.05,6.95-.16a1,1,0,0,1,.1,1.45l-1.14.15c-2.44.31-2.9.52-2.9,6V27.52c0,7.15,2.18,13.17,9.38,13.17,6.79,0,9.59-5.14,9.59-13V21.19c0-3.89-.05-8.71-1-10.21A3.33,3.33,0,0,0,72.2,9.63l-1-.15c-.47-.36-.42-1.3.1-1.45,1.76.1,3.73.16,5.76.16,2.18,0,3.58-.05,5.49-.16a1,1,0,0,1,.11,1.45l-1.14.26c-1,.21-1.92.42-2.28,1.24-.73,1.56-.73,6.12-.73,10.21v6.17c0,4.72-.73,9.07-3.42,12s-6.59,3.89-10.16,3.89c-4.87,0-8.29-1-10.68-3.32S50.79,34,50.79,28.81Z"/><path class="cls-1" d="M115.59,33.58c0,1.55,0,7.67.15,8.86a2.35,2.35,0,0,1-2,.73c-.83-1.09-2.13-2.59-5.86-6.84L95.79,22.49c-3.32-3.84-5-5.76-5.91-6.53-.16,0-.16.57-.16,3.32V29.38c0,3.89.05,8.66.93,10.21a3.25,3.25,0,0,0,2.64,1.3l1.14.16c.47.36.41,1.35-.1,1.5-1.92-.11-3.94-.15-5.91-.15-2.18,0-3.58,0-5.39.15a1.06,1.06,0,0,1-.1-1.5l1.14-.26c1-.21,1.92-.36,2.28-1.2C87,38,87,33.48,87,29.38V17.1c0-4,.05-4.87-1.71-6.38a8.43,8.43,0,0,0-2.75-1l-.78-.16c-.36-.31-.31-1.35.21-1.5,2,.21,4.82.16,6.12.16,1.09,0,2.33-.05,3.58-.16.88,2.23,6.53,8.76,8.35,10.73l5.18,5.6c2.18,2.38,7,7.88,7.52,8.19.15-.16.15-.41.15-1.24V21.19c0-3.89,0-8.66-1-10.21a3.16,3.16,0,0,0-2.59-1.29l-1.19-.16c-.47-.36-.41-1.35.11-1.5,2,.1,3.94.16,6,.16,2.23,0,3.58-.05,5.44-.16a1.06,1.06,0,0,1,.1,1.5l-1.19.26c-1,.21-1.87.36-2.23,1.19-.73,1.61-.73,6.12-.73,10.21Z"/><path class="cls-1" d="M135,25.81c-2.64,0-2.8.1-2.8,1.5v7.62c0,5.49.47,5.6,2.9,5.91l1.56.21c.36.36.31,1.29-.11,1.5-2.69-.11-5-.15-7.31-.15s-4.62,0-6.58.15c-.42-.21-.47-1.14-.1-1.5l.72-.11c2.44-.36,2.9-.52,2.9-6V15.64c0-5.49-.47-5.65-2.9-6l-1.14-.16a1.12,1.12,0,0,1,.11-1.5c2.28.1,4.72.16,7,.16s4.61-.05,6.63-.16a1.12,1.12,0,0,1,.1,1.5l-.88.16c-2.44.42-2.9.46-2.9,6v6.28c0,1.45.16,1.55,2.8,1.55h12.13c2.64,0,2.8-.1,2.8-1.55V15.64c0-5.49-.47-5.65-2.91-6l-1.14-.16A1.12,1.12,0,0,1,146,8q3.58.15,7,.16c2.28,0,4.61-.05,6.69-.16a1.12,1.12,0,0,1,.1,1.5l-.93.16c-2.43.42-2.9.46-2.9,6V34.93c0,5.49.47,5.65,2.9,6L160,41c.36.36.31,1.29-.1,1.5-2.28-.11-4.61-.15-6.89-.15s-4.72,0-7,.15c-.42-.21-.47-1.14-.1-1.5l1.14-.16c2.44-.31,2.91-.47,2.91-6V27.31c0-1.4-.16-1.5-2.8-1.5Z"/><path class="cls-1" d="M171.37,29.69c-1.35,0-1.29,0-1.76,1.4l-2.07,6.22c-1,3.06-.36,3.16,1.55,3.47l1.5.26c.36.36.31,1.29-.1,1.5-1.66-.11-3.63-.11-5.75-.15-1.71,0-3.32,0-5.13.15a1.16,1.16,0,0,1-.05-1.5l1.56-.26c1.5-.26,2.07-.67,2.85-2.39.62-1.34,1.45-3.52,2.54-6.32l7.1-18.46c.62-1.66,1.14-2.9,1-3.78,1.82-.36,3.53-2.49,3.63-2.49a1,1,0,0,1,.88.42c.83,2.33,1.5,4.77,2.33,7.1l7.46,21.72c1.19,3.47,1.45,3.79,4.1,4.3l.78.16a1.12,1.12,0,0,1,.05,1.5c-2.12-.11-4-.15-6.74-.15-2.23,0-4.51.1-6.33.15a1.18,1.18,0,0,1-.15-1.5l1.14-.16c1.87-.26,2.13-.57,1.35-2.75l-2.44-7c-.47-1.4-.68-1.4-2.13-1.4Zm6.48-2.33c1.45,0,1.66-.11,1.24-1.35l-2.18-6.22a38.49,38.49,0,0,0-1.5-4.3h-.1c-.21.37-.73,1.87-1.61,4.3l-2.33,6.07c-.52,1.5-.41,1.5.83,1.5Z"/><path class="cls-1" d="M237.47,41c.52.21.47,1.29-.11,1.5-2.23-.11-4.25-.15-6.32-.15-2.44,0-4.66,0-6.95.15-.42-.21-.62-1.19-.1-1.5l1.4-.26c2.07-.36,2.23-.73,2.23-4.25V15.33h-.1c-1.4,2.85-2.12,4.41-3.11,6.48l-4.45,9.12c-1.76,3.63-4.36,9.38-5.29,11.82a1.51,1.51,0,0,1-1.35,0c-.88-2.8-3.11-7.88-4.3-10.47l-4.46-10c-1-2.18-2.49-5.6-3.11-7.16h-.1c-.1,2.54-.26,6.74-.36,8.92-.1,3.16-.31,7.78-.31,12,0,3.42.05,4.2,2.28,4.62l1.71.31c.36.31.36,1.29-.05,1.5-1.92-.11-3.52-.15-5.44-.15-1.66,0-3.42,0-5.44.15a1.13,1.13,0,0,1-.15-1.5l.88-.11c2.49-.31,2.9-1.09,3.27-4.25s.62-6.63.88-12c.21-3.53.52-7.83.52-11,0-2.44-.78-3.48-2.8-3.84l-1.76-.31c-.31-.36-.26-1.35.21-1.5,1.56.1,3,.16,4.87.16s3.63,0,5.54-.16c.21,3.11,1.5,5.81,2.85,8.6l5.55,12c.42.88,1.81,3.84,2.49,5,.83-1.5,1.71-3.32,2.9-5.76l4.82-10c1.66-3.42,3.32-6.48,4.2-9.9,1.4.1,2.9.16,4,.16q3.27,0,5.45-.16a.9.9,0,0,1,.16,1.5l-1.71.26c-2.28.36-2.8,1.19-2.8,3.94,0,7.67.11,15.34.47,23,.15,3.47.72,3.78,2.38,4Z"/><path class="cls-1" d="M3.73,56.12c.44-1.42.47-1.62-.33-1.79l-.3-.06a.24.24,0,0,1,.09-.38c.27,0,.53,0,.8,0H7.73c1,0,1.68,0,2.13,0-.11.26-.47,1.47-.62,2a.24.24,0,0,1-.38,0c.09-.79.14-1.17-.53-1.35a6.47,6.47,0,0,0-1.61-.14H5.83c-.39,0-.45.06-.59.52l-1,3.1c-.13.43-.15.44.27.44H5.3c1.44,0,1.74-.09,2.09-.74l.24-.46c.06-.11.35-.09.38,0s-.35.91-.51,1.47-.32,1.14-.39,1.47a.24.24,0,0,1-.38,0V59.8c0-.79-.39-.81-1.56-.81H4.41c-.42,0-.46,0-.59.44l-.62,2c-.26.85-.41,1.36-.26,1.67s.39.32,1.68.32c1.67,0,2.27-.09,3.23-1.58A.24.24,0,0,1,8.2,62a7,7,0,0,1-1,2L5.47,64H1.89c-.62,0-1.14,0-1.8,0a.26.26,0,0,1,0-.38l.53,0c.73-.06.88-.26,1.37-1.8Z"/><path class="cls-1" d="M15.09,55.11c.3-.85.35-1.11.14-1.26l-.35-.24a.2.2,0,0,1,0-.21,6.12,6.12,0,0,1,1.79-.29l.06.09c-.27.85-.5,1.43-1,2.68-1.5,4.14-2.21,6.56-2.35,7-.06.2,0,.35.09.35a4.83,4.83,0,0,0,1.67-1.37.2.2,0,0,1,.23.2c-.41.83-1.79,2.07-2.58,2.07a.47.47,0,0,1-.49-.49,2.76,2.76,0,0,1,.2-.86l.53-1.5-.06,0c-1,1.39-2.18,2.86-3.65,2.86-.59,0-.91-.49-.91-1.09a6.31,6.31,0,0,1,2-4,4.43,4.43,0,0,1,2.71-1.34.93.93,0,0,1,.77.47Zm-3,3.75a13.1,13.1,0,0,0-2.17,3,3,3,0,0,0-.47,1.44.32.32,0,0,0,.29.32,3.92,3.92,0,0,0,2-1.35,6.66,6.66,0,0,0,1.85-2.92c.18-.64,0-1.09-.39-1.09A2,2,0,0,0,12,58.86Z"/><path class="cls-1" d="M17.13,62.63c-.14.37-.06.52.11.52s.83-.49,1.62-1.26a15.67,15.67,0,0,0,2.66-4c.32-.06.68.09.74.27-.15.41-1.13,2.89-1.77,4.69-.08.2-.09.38.06.38S21.64,62.48,22,62a.21.21,0,0,1,.27.21,4.46,4.46,0,0,1-2.65,1.92.42.42,0,0,1-.38-.53l1-2.77h0c-1.09,1.38-3,3.32-3.79,3.32-.62,0-.7-.62-.44-1.29l1.39-3.68c.11-.29.12-.44,0-.44-.29,0-1.08.67-1.44,1a.21.21,0,0,1-.26-.23,5.08,5.08,0,0,1,2.62-1.8c.2,0,.55.2.45.45Z"/><path class="cls-1" d="M27.7,58.65a.73.73,0,0,1-.74.71.3.3,0,0,1-.3-.27c0-.38,0-.83-.53-.83-.33,0-.8.32-1.27,1a6.51,6.51,0,0,0-1,3.14c0,.76.29,1,.65,1a2.81,2.81,0,0,0,1.64-.92.18.18,0,0,1,.2.25,3.4,3.4,0,0,1-2.5,1.43c-.59,0-1.14-.44-1.14-1.61a5.84,5.84,0,0,1,1.92-3.91,2.93,2.93,0,0,1,2-.88C27.34,57.76,27.7,58.18,27.7,58.65Z"/><path class="cls-1" d="M32.83,57.41a.63.63,0,0,1,.74.23c-.23.56-1.55,3.91-2,5.29-.09.26,0,.35.11.35s.7-.26,1.56-1a.2.2,0,0,1,.21.2,4,4,0,0,1-2.55,1.7.42.42,0,0,1-.44-.41,2,2,0,0,1,.15-.59l.5-1.36,0,0c-1.08,1.33-2.62,2.38-3.33,2.38A.76.76,0,0,1,27,63.3a6.57,6.57,0,0,1,1.33-2.94,6.61,6.61,0,0,1,2-2A2.65,2.65,0,0,1,31.74,58a.74.74,0,0,1,.36.09.92.92,0,0,1,.3.32ZM30.2,59.14a6.73,6.73,0,0,0-1.89,3.92c0,.18.09.29.23.29s.61-.2,1.47-1a7.31,7.31,0,0,0,2-3.27.8.8,0,0,0-.76-.54C30.91,58.54,30.67,58.71,30.2,59.14Z"/><path class="cls-1" d="M36.54,58.7l-1.36,4c-.09.29,0,.38.11.38A5.55,5.55,0,0,0,37,61.7c.15,0,.24.09.21.27a5,5,0,0,1-2.91,2.18.45.45,0,0,1-.41-.41,2.88,2.88,0,0,1,.21-.87l1.43-4.18H34.36a.38.38,0,0,1,.17-.42l1.21-.21.85-1.5a.51.51,0,0,1,.58.09l-.44,1.48h1.65a.44.44,0,0,1-.18.56Z"/><path class="cls-1" d="M39.72,59c.08-.17.08-.29,0-.29a3.49,3.49,0,0,0-1.26.8.22.22,0,0,1-.2-.26,4.38,4.38,0,0,1,2.5-1.51c.11,0,.18.09.24.15s.09.23-.09.67l-1.8,4.3c-.06.15-.07.33,0,.33a3.64,3.64,0,0,0,1.58-1.12.24.24,0,0,1,.23.26,4.74,4.74,0,0,1-2.83,1.8.34.34,0,0,1-.24-.14.36.36,0,0,1-.06-.41Zm1.8-3.8a.89.89,0,0,1-.79.94.51.51,0,0,1-.53-.56c0-.33.21-1,.8-1C41.36,54.64,41.52,54.88,41.52,55.21Z"/><path class="cls-1" d="M43.52,61l0,0c1.08-1.64,2.58-3.3,3.71-3.3a.74.74,0,0,1,.85.82,4.15,4.15,0,0,1-.24,1.06c-.27.76-1.36,3.23-1.41,3.35s-.08.29,0,.29a3.14,3.14,0,0,0,1.42-1c.21,0,.24.09.24.21a3.54,3.54,0,0,1-2.61,1.7.45.45,0,0,1-.36-.38c0-.14,0-.24.36-1s.88-2.23,1.23-3a3.6,3.6,0,0,0,.32-1.1c0-.18,0-.36-.24-.36s-1.26.76-2.09,1.8A25.2,25.2,0,0,0,42.46,64c-.08.14-.14.18-.27.18s-.58,0-.44-.39c.08-.2,1.68-4.56,1.76-4.77s.08-.35,0-.35a2.62,2.62,0,0,0-1.38.76.19.19,0,0,1-.18-.23,3.2,3.2,0,0,1,2.26-1.41c.36,0,.53.27.39.62Z"/><path class="cls-1" d="M52.88,57.89a2.22,2.22,0,0,0,.36.13,3.16,3.16,0,0,0,.73-.09,3.64,3.64,0,0,1,.68-.12c.21,0,.32.15.32.38s-.18.47-.34.47a2.68,2.68,0,0,1-.5-.08,2.71,2.71,0,0,0-.56-.09c-.08,0-.15,0-.14.09a2.36,2.36,0,0,1,.11.58,3.82,3.82,0,0,1-1.92,3,6,6,0,0,1-1.08.39.65.65,0,0,0-.33.53.91.91,0,0,0,.5.71c.35.24.94.57,1.48.91.88.52,1.14,1,1.14,1.47,0,.85-1.23,1.8-3.69,1.8-1.11,0-2.39-.42-2.39-1.44s1.77-1.88,2.59-2.13c-.39-.26-.48-.49-.48-.7A3.29,3.29,0,0,1,50,62.57a1.36,1.36,0,0,1-1.11-1.36,3.64,3.64,0,0,1,1.23-2.54,3.34,3.34,0,0,1,2.24-.91A1.59,1.59,0,0,1,52.88,57.89Zm-.55,8.59c0-.26-.17-.59-.65-.93a5,5,0,0,0-1.41-.76,2.46,2.46,0,0,0-1.41.56,1.21,1.21,0,0,0-.58,1c0,.71,1,1.17,2,1.17C51,67.51,52.34,67.21,52.34,66.48ZM51.2,58.82a5.71,5.71,0,0,0-1.36,2.79.49.49,0,0,0,.46.53,1.36,1.36,0,0,0,1-.59,6,6,0,0,0,1.37-2.83.48.48,0,0,0-.45-.52C52,58.2,51.67,58.3,51.2,58.82Z"/><path class="cls-1" d="M60.32,58.7l-1.36,4c-.09.29,0,.38.11.38a5.52,5.52,0,0,0,1.73-1.36c.15,0,.24.09.21.27a5,5,0,0,1-2.91,2.18.45.45,0,0,1-.41-.41,2.92,2.92,0,0,1,.21-.87l1.42-4.18H58.14a.38.38,0,0,1,.17-.42l1.21-.21.85-1.5a.51.51,0,0,1,.58.09l-.44,1.48h1.65a.44.44,0,0,1-.18.56Z"/><path class="cls-1" d="M65.89,53.2,64.8,56.29l-1.56,4.53,0,0a9.56,9.56,0,0,1,2.39-2.5,2.59,2.59,0,0,1,1.44-.59c.67,0,.91.49.91,1a8.69,8.69,0,0,1-1.18,3.54,5.34,5.34,0,0,1-1,1.24,1.67,1.67,0,0,1-1.11.59c-.5,0-.56-.32-.56-.44a.48.48,0,0,1,.41-.48.36.36,0,0,1,.21.09.88.88,0,0,0,.4.2c.23,0,.38-.23.6-.75a15.6,15.6,0,0,0,1.09-3.91c0-.29-.11-.46-.32-.46a1.65,1.65,0,0,0-.82.41,9.54,9.54,0,0,0-1.92,2A24.55,24.55,0,0,0,62,64a.28.28,0,0,1-.27.18c-.17,0-.56,0-.44-.39l2.88-8.51c.33-1,.41-1.21.16-1.38L64,53.65a.15.15,0,0,1,0-.2,8.44,8.44,0,0,1,1.77-.35Z"/><path class="cls-1" d="M73.3,58.67c0,1.15-1.5,1.91-3.68,2.51a3.83,3.83,0,0,0-.21,1.35.78.78,0,0,0,.73.86c.54,0,.92-.3,1.59-.88a.2.2,0,0,1,.2.26,3.1,3.1,0,0,1-2.42,1.38c-.91,0-1.23-.85-1.23-1.59a5.7,5.7,0,0,1,2.26-4.07,2.91,2.91,0,0,1,1.82-.73A1,1,0,0,1,73.3,58.67ZM70.89,59a6,6,0,0,0-1.12,1.77,4.41,4.41,0,0,0,2-1.12,1.72,1.72,0,0,0,.59-1,.32.32,0,0,0-.35-.35C71.83,58.23,71.43,58.36,70.89,59Z"/><path class="cls-1" d="M79.56,56.76a7.76,7.76,0,0,0,.64-2c0-.21-.14-.3-.43-.35l-.71-.11a.26.26,0,0,1,.08-.38c.71,0,1.2,0,1.67,0a10.16,10.16,0,0,0,1,0,7.88,7.88,0,0,0,.07,3l.24,2c.17,1.3.26,2.1.33,2.77h0c.59-.71,1.17-1.49,1.74-2.23l2.41-3.11a7.79,7.79,0,0,0,1.47-2.35,7.09,7.09,0,0,0,.94,0c.59,0,1.06,0,1.53,0,.12.08.08.29,0,.38l-.35.06a1.49,1.49,0,0,0-.91.35,5.77,5.77,0,0,0-.7,1.88l-1.32,4.7a11.57,11.57,0,0,0-.44,1.9c0,.24.18.38.61.41l.51,0a.26.26,0,0,1-.06.38c-.56,0-1.24,0-1.94,0s-1.27,0-1.83,0a.27.27,0,0,1,0-.38l.39,0a1.62,1.62,0,0,0,.83-.29,7,7,0,0,0,.77-1.92l1.21-4c.24-.77.46-1.45.58-1.91h0c-.21.27-.59.79-1.41,1.85l-2.3,3a34.38,34.38,0,0,0-2.42,3.41.23.23,0,0,1-.29-.06,28.25,28.25,0,0,0-.24-3.09l-.51-5.09h0c-.24.55-.47,1.18-.7,1.8l-1.14,3.06A12.84,12.84,0,0,0,78,63.15c0,.16.08.29.46.35l.65.11A.38.38,0,0,1,79,64c-.42,0-1,0-1.74,0s-1.14,0-1.62,0c-.09-.09-.09-.33,0-.38l.41,0a1.15,1.15,0,0,0,.86-.41,34.51,34.51,0,0,0,1.83-4.35Z"/><path class="cls-1" d="M91.25,59c.08-.17.08-.29,0-.29a3.45,3.45,0,0,0-1.26.8.21.21,0,0,1-.2-.26,4.38,4.38,0,0,1,2.5-1.51c.11,0,.18.09.24.15s.09.23-.09.67l-1.8,4.3c-.06.15-.08.33,0,.33a3.64,3.64,0,0,0,1.57-1.12.24.24,0,0,1,.23.26,4.75,4.75,0,0,1-2.83,1.8.34.34,0,0,1-.24-.14.37.37,0,0,1-.06-.41Zm1.8-3.8a.89.89,0,0,1-.79.94.51.51,0,0,1-.53-.56c0-.33.21-1,.8-1C92.89,54.64,93.05,54.88,93.05,55.21Z"/><path class="cls-1" d="M95.05,61l0,0c1.08-1.64,2.57-3.3,3.71-3.3a.74.74,0,0,1,.85.82,4.19,4.19,0,0,1-.24,1.06c-.27.76-1.36,3.23-1.41,3.35s-.08.29,0,.29a3.14,3.14,0,0,0,1.42-1c.21,0,.24.09.24.21a3.54,3.54,0,0,1-2.61,1.7.45.45,0,0,1-.36-.38c0-.14,0-.24.36-1s.88-2.23,1.23-3a3.58,3.58,0,0,0,.32-1.1c0-.18,0-.36-.24-.36s-1.26.76-2.09,1.8A25.27,25.27,0,0,0,94,64c-.08.14-.14.18-.27.18s-.58,0-.44-.39C93.36,63.56,95,59.19,95,59s.07-.35,0-.35a2.62,2.62,0,0,0-1.38.76.19.19,0,0,1-.18-.23,3.2,3.2,0,0,1,2.26-1.41c.36,0,.53.27.39.62Z"/><path class="cls-1" d="M106.59,55.11c.3-.85.35-1.11.14-1.26l-.35-.24a.19.19,0,0,1,0-.21,6.11,6.11,0,0,1,1.79-.29l.06.09c-.27.85-.5,1.43-1,2.68-1.5,4.14-2.21,6.56-2.35,7-.06.2,0,.35.09.35a4.81,4.81,0,0,0,1.67-1.37.2.2,0,0,1,.23.2c-.41.83-1.79,2.07-2.58,2.07a.47.47,0,0,1-.49-.49,2.79,2.79,0,0,1,.2-.86l.53-1.5-.06,0c-1,1.39-2.18,2.86-3.65,2.86-.59,0-.91-.49-.91-1.09a6.32,6.32,0,0,1,2-4,4.44,4.44,0,0,1,2.71-1.34.93.93,0,0,1,.77.47Zm-3,3.75a13.16,13.16,0,0,0-2.17,3,3,3,0,0,0-.47,1.44.32.32,0,0,0,.29.32,3.91,3.91,0,0,0,2-1.35,6.66,6.66,0,0,0,1.85-2.92c.18-.64,0-1.09-.39-1.09A2,2,0,0,0,103.55,58.86Z"/><path class="cls-1" d="M115.88,57.41a.63.63,0,0,1,.74.23c-.23.56-1.54,3.91-2,5.29-.09.26,0,.35.11.35s.7-.26,1.56-1a.2.2,0,0,1,.21.2,4,4,0,0,1-2.55,1.7.42.42,0,0,1-.44-.41,2,2,0,0,1,.15-.59l.5-1.36,0,0c-1.08,1.33-2.62,2.38-3.33,2.38a.76.76,0,0,1-.67-.85,6.56,6.56,0,0,1,1.33-2.94,6.63,6.63,0,0,1,2-2,2.66,2.66,0,0,1,1.36-.44.73.73,0,0,1,.36.09.89.89,0,0,1,.3.32Zm-2.64,1.73a6.72,6.72,0,0,0-1.89,3.92c0,.18.09.29.23.29s.6-.2,1.47-1a7.32,7.32,0,0,0,2-3.27.8.8,0,0,0-.76-.54C114,58.54,113.71,58.71,113.24,59.14Z"/><path class="cls-1" d="M118.81,61l0,0c1.08-1.64,2.57-3.3,3.71-3.3a.74.74,0,0,1,.85.82,4.19,4.19,0,0,1-.24,1.06c-.27.76-1.36,3.23-1.41,3.35s-.08.29,0,.29a3.15,3.15,0,0,0,1.43-1c.21,0,.24.09.24.21a3.54,3.54,0,0,1-2.61,1.7.45.45,0,0,1-.36-.38c0-.14,0-.24.36-1s.88-2.23,1.23-3a3.55,3.55,0,0,0,.32-1.1c0-.18,0-.36-.24-.36s-1.26.76-2.09,1.8A25.2,25.2,0,0,0,117.75,64c-.08.14-.14.18-.27.18s-.58,0-.44-.39L118.8,59c.08-.2.08-.35,0-.35a2.61,2.61,0,0,0-1.38.76.19.19,0,0,1-.18-.23,3.2,3.2,0,0,1,2.26-1.41c.36,0,.53.27.39.62Z"/><path class="cls-1" d="M130.35,55.11c.3-.85.35-1.11.13-1.26l-.35-.24a.19.19,0,0,1,0-.21,6.11,6.11,0,0,1,1.79-.29l.06.09c-.27.85-.5,1.43-1,2.68-1.5,4.14-2.21,6.56-2.35,7-.06.2,0,.35.09.35a4.79,4.79,0,0,0,1.67-1.37.2.2,0,0,1,.23.2c-.41.83-1.79,2.07-2.57,2.07a.47.47,0,0,1-.48-.49,2.76,2.76,0,0,1,.2-.86l.53-1.5-.06,0c-1,1.39-2.18,2.86-3.65,2.86-.59,0-.91-.49-.91-1.09a6.32,6.32,0,0,1,2-4,4.43,4.43,0,0,1,2.71-1.34.93.93,0,0,1,.77.47Zm-3,3.75a13.07,13.07,0,0,0-2.17,3,3,3,0,0,0-.47,1.44.32.32,0,0,0,.29.32,3.91,3.91,0,0,0,2-1.35,6.68,6.68,0,0,0,1.85-2.92c.18-.64,0-1.09-.4-1.09A2,2,0,0,0,127.31,58.86Z"/><path class="cls-1" d="M137,58.7l-1.36,4c-.09.29,0,.38.11.38a5.53,5.53,0,0,0,1.73-1.36c.15,0,.24.09.21.27a5,5,0,0,1-2.91,2.18.45.45,0,0,1-.41-.41,2.91,2.91,0,0,1,.21-.87L136,58.7h-1.18a.38.38,0,0,1,.17-.42l1.21-.21.85-1.5a.51.51,0,0,1,.58.09l-.44,1.48h1.65a.44.44,0,0,1-.18.56Z"/><path class="cls-1" d="M142.57,53.2l-1.09,3.09-1.56,4.53,0,0a9.6,9.6,0,0,1,2.39-2.5,2.6,2.6,0,0,1,1.44-.59c.67,0,.91.49.91,1a8.71,8.71,0,0,1-1.18,3.54,5.46,5.46,0,0,1-1,1.24,1.67,1.67,0,0,1-1.1.59c-.5,0-.56-.32-.56-.44a.48.48,0,0,1,.41-.48.38.38,0,0,1,.21.09.87.87,0,0,0,.39.2c.23,0,.38-.23.6-.75a15.49,15.49,0,0,0,1.09-3.91c0-.29-.11-.46-.32-.46a1.63,1.63,0,0,0-.82.41,9.44,9.44,0,0,0-1.92,2A24.43,24.43,0,0,0,138.68,64a.27.27,0,0,1-.27.18c-.17,0-.56,0-.44-.39l2.88-8.51c.33-1,.41-1.21.17-1.38l-.32-.21a.15.15,0,0,1,0-.2,8.46,8.46,0,0,1,1.77-.35Z"/><path class="cls-1" d="M150,58.67c0,1.15-1.5,1.91-3.68,2.51a3.9,3.9,0,0,0-.21,1.35.78.78,0,0,0,.73.86c.54,0,.92-.3,1.59-.88a.2.2,0,0,1,.2.26,3.09,3.09,0,0,1-2.42,1.38c-.91,0-1.22-.85-1.22-1.59a5.68,5.68,0,0,1,2.26-4.07,2.9,2.9,0,0,1,1.82-.73A1,1,0,0,1,150,58.67Zm-2.41.29a6.1,6.1,0,0,0-1.12,1.77,4.4,4.4,0,0,0,2-1.12,1.7,1.7,0,0,0,.59-1,.32.32,0,0,0-.35-.35C148.51,58.23,148.11,58.36,147.57,59Z"/><path class="cls-1" d="M161.29,58.44c.7,0,.7,0,.8-.33l.62-2c.44-1.42.49-1.65-.33-1.79l-.38-.06a.26.26,0,0,1,.09-.38c.62,0,1.12,0,1.77,0s1.09,0,1.76,0a.24.24,0,0,1,0,.38l-.36.06c-.85.14-.94.29-1.41,1.79l-1.76,5.64c-.44,1.41-.48,1.71.29,1.8l.41,0a.27.27,0,0,1-.06.38c-.71,0-1.2,0-1.85,0s-1.13,0-1.76,0a.26.26,0,0,1,0-.38l.49,0c.71-.06.88-.26,1.36-1.8l.73-2.3c.12-.39.11-.41-.54-.41H157c-.48,0-.47,0-.57.36l-.74,2.35c-.44,1.41-.49,1.73.29,1.8l.47,0a.28.28,0,0,1-.06.38c-.74,0-1.26,0-1.91,0s-1.13,0-1.62,0a.26.26,0,0,1,0-.38l.35,0c.73-.09.88-.26,1.36-1.8l1.78-5.64c.45-1.42.48-1.65-.35-1.79l-.36-.06a.24.24,0,0,1,.09-.38c.61,0,1.12,0,1.76,0s1.12,0,1.76,0a.24.24,0,0,1,0,.38l-.35.06c-.86.15-.92.29-1.41,1.79l-.62,2c-.1.35-.1.36.44.36Z"/><path class="cls-1" d="M169,58.67c0,1.15-1.5,1.91-3.68,2.51a3.86,3.86,0,0,0-.21,1.35.78.78,0,0,0,.73.86c.55,0,.92-.3,1.59-.88a.2.2,0,0,1,.2.26,3.1,3.1,0,0,1-2.43,1.38c-.91,0-1.22-.85-1.22-1.59a5.68,5.68,0,0,1,2.26-4.07,2.9,2.9,0,0,1,1.82-.73A1,1,0,0,1,169,58.67Zm-2.41.29a6.08,6.08,0,0,0-1.12,1.77,4.4,4.4,0,0,0,2-1.12,1.7,1.7,0,0,0,.59-1,.32.32,0,0,0-.35-.35C167.56,58.23,167.16,58.36,166.62,59Z"/><path class="cls-1" d="M174.28,57.41a.63.63,0,0,1,.74.23c-.23.56-1.55,3.91-2,5.29-.09.26,0,.35.11.35s.7-.26,1.56-1a.2.2,0,0,1,.21.2,4,4,0,0,1-2.54,1.7.42.42,0,0,1-.44-.41,1.86,1.86,0,0,1,.15-.59l.5-1.36,0,0c-1.08,1.33-2.62,2.38-3.33,2.38a.76.76,0,0,1-.67-.85,6.58,6.58,0,0,1,1.34-2.94,6.66,6.66,0,0,1,2-2,2.65,2.65,0,0,1,1.36-.44.74.74,0,0,1,.36.09.9.9,0,0,1,.3.32Zm-2.63,1.73a6.72,6.72,0,0,0-1.89,3.92c0,.18.09.29.23.29s.61-.2,1.47-1a7.31,7.31,0,0,0,2-3.27.8.8,0,0,0-.76-.54C172.36,58.54,172.12,58.71,171.65,59.14Z"/><path class="cls-1" d="M177.75,59.19l-.65,1.91h.08a22.46,22.46,0,0,1,1.59-2.56c.35-.45.73-.79,1.1-.79.53,0,.61.51.61.74a1.87,1.87,0,0,1-.32.91c-.18.23-.42.24-.49-.07s-.16-.59-.32-.59-.31.15-.53.45A26.17,26.17,0,0,0,176.25,64a.28.28,0,0,1-.26.18c-.17,0-.61-.06-.5-.39.2-.6,1.15-3.29,1.56-4.77,0-.17,0-.32-.12-.32-.4,0-.8.42-1.08.79-.15,0-.26-.06-.24-.24.49-.82,1.06-1.46,1.79-1.46S177.89,58.79,177.75,59.19Z"/><path class="cls-1" d="M182.9,58.7l-1.37,4c-.09.29,0,.38.11.38a5.6,5.6,0,0,0,1.73-1.36c.15,0,.24.09.21.27a5,5,0,0,1-2.91,2.18.45.45,0,0,1-.41-.41,3,3,0,0,1,.21-.87l1.43-4.18h-1.18a.38.38,0,0,1,.17-.42l1.21-.21.85-1.5a.51.51,0,0,1,.57.09l-.44,1.48h1.65a.43.43,0,0,1-.18.56Z"/><path class="cls-1" d="M190.26,58.53c-.09.26-.21.74-.4,1.41-.45,1.7-.87,3.15-1.35,4.82a6,6,0,0,1-1.2,2.44,2.82,2.82,0,0,1-1.82.82c-.82,0-1.11-.52-1.11-.74a.87.87,0,0,1,.35-.68.25.25,0,0,1,.35.06,1.82,1.82,0,0,0,1.15.62c.31,0,.62-.11,1-1.27.7-2.4,1.23-5,2-7.47h-1.26A.38.38,0,0,1,188,58h1.3a9.2,9.2,0,0,1,1.7-3.6,3.08,3.08,0,0,1,2.43-1.26,1.11,1.11,0,0,1,1.17,1c0,.39-.41.86-.65.86s-.2-.14-.21-.24c0-.84-.47-1.11-.85-1.11a1.58,1.58,0,0,0-1.09.82A11.39,11.39,0,0,0,190.39,58h1.89a.4.4,0,0,1-.15.56Z"/><path class="cls-1" d="M196.34,59.67a5.75,5.75,0,0,1-1.61,3.44,2.91,2.91,0,0,1-2.17,1c-1,0-1.61-.71-1.51-2a5.68,5.68,0,0,1,1.65-3.39,3,3,0,0,1,2.09-1C195.88,57.76,196.4,58.56,196.34,59.67Zm-2.75-.73a8.72,8.72,0,0,0-1.52,3.79c0,.53.18,1,.62,1s.71-.14,1.2-.79a9.36,9.36,0,0,0,1.41-3.69c0-.47-.08-1-.61-1C194.39,58.21,194,58.35,193.59,58.94Z"/><path class="cls-1" d="M199.33,59.19l-.65,1.91h.08a22.88,22.88,0,0,1,1.59-2.56,1.63,1.63,0,0,1,1.11-.79c.53,0,.61.51.61.74a1.85,1.85,0,0,1-.32.91c-.18.23-.42.24-.48-.07s-.17-.59-.32-.59-.3.15-.53.45A26.18,26.18,0,0,0,197.83,64a.27.27,0,0,1-.25.18c-.17,0-.61-.06-.5-.39.2-.6,1.15-3.29,1.56-4.77,0-.17,0-.32-.12-.32-.4,0-.8.42-1.08.79-.15,0-.26-.06-.24-.24.48-.82,1.06-1.46,1.78-1.46S199.47,58.79,199.33,59.19Z"/><path class="cls-1" d="M215.59,54.18a17,17,0,0,0-.68,2c-.06.12-.36.11-.41,0,.29-1.32-.09-2-1.65-2a5.43,5.43,0,0,0-3.88,1.7,6.92,6.92,0,0,0-1.78,4.53c0,2.15,1,3.31,2.94,3.31a3.71,3.71,0,0,0,3.26-2.12c.15-.06.32,0,.36.11a13.89,13.89,0,0,1-1,2.14,8.28,8.28,0,0,0-1.2.16,8.35,8.35,0,0,1-1.47.18c-2,0-4.24-.9-4.24-4.08A6.35,6.35,0,0,1,208,55.54a7.61,7.61,0,0,1,5.09-1.85A6.82,6.82,0,0,1,215.59,54.18Z"/><path class="cls-1" d="M218.82,53.2c-.31.85-.79,2.23-1.09,3.09l-1.56,4.53,0,0a9.66,9.66,0,0,1,2.39-2.5,2.6,2.6,0,0,1,1.44-.59c.67,0,.91.49.91,1a8.74,8.74,0,0,1-1.18,3.54,5.26,5.26,0,0,1-1,1.24,1.67,1.67,0,0,1-1.11.59c-.5,0-.56-.32-.56-.44a.48.48,0,0,1,.41-.48.36.36,0,0,1,.21.09.87.87,0,0,0,.4.2c.23,0,.38-.23.6-.75a15.69,15.69,0,0,0,1.09-3.91c0-.29-.1-.46-.32-.46a1.64,1.64,0,0,0-.82.41,9.49,9.49,0,0,0-1.92,2A24.55,24.55,0,0,0,214.92,64a.28.28,0,0,1-.27.18c-.17,0-.56,0-.44-.39l2.88-8.51c.33-1,.41-1.21.17-1.38l-.32-.21a.15.15,0,0,1,0-.2,8.43,8.43,0,0,1,1.77-.35Z"/><path class="cls-1" d="M223.74,59.19l-.65,1.91h.07a22.73,22.73,0,0,1,1.59-2.56,1.63,1.63,0,0,1,1.11-.79c.53,0,.61.51.61.74a1.84,1.84,0,0,1-.32.91c-.18.23-.42.24-.48-.07s-.17-.59-.32-.59-.3.15-.53.45A26.35,26.35,0,0,0,222.24,64a.27.27,0,0,1-.25.18c-.17,0-.61-.06-.5-.39.2-.6,1.15-3.29,1.56-4.77,0-.17,0-.32-.12-.32-.39,0-.8.42-1.08.79-.15,0-.25-.06-.24-.24.48-.82,1.06-1.46,1.79-1.46S223.88,58.79,223.74,59.19Z"/><path class="cls-1" d="M228,59c.07-.17.07-.29,0-.29a3.5,3.5,0,0,0-1.25.8.21.21,0,0,1-.2-.26,4.37,4.37,0,0,1,2.5-1.51c.11,0,.18.09.24.15s.09.23-.09.67l-1.8,4.3c-.06.15-.08.33,0,.33A3.66,3.66,0,0,0,229,62.09a.24.24,0,0,1,.23.26,4.75,4.75,0,0,1-2.83,1.8.34.34,0,0,1-.24-.14.37.37,0,0,1-.06-.41Zm1.8-3.8a.89.89,0,0,1-.79.94.51.51,0,0,1-.53-.56c0-.33.21-1,.8-1C229.66,54.64,229.83,54.88,229.83,55.21Z"/><path class="cls-1" d="M233.46,58.62a.53.53,0,0,1-.27.47c-.1,0-.2,0-.29-.12a1.17,1.17,0,0,0-.92-.48.61.61,0,0,0-.62.6,2.59,2.59,0,0,0,.51,1.38,2.74,2.74,0,0,1,.58,1.68,2.11,2.11,0,0,1-.79,1.45,2.32,2.32,0,0,1-1.53.55.89.89,0,0,1-.92-.8.75.75,0,0,1,.23-.5.31.31,0,0,1,.41,0,1.69,1.69,0,0,0,1,.61.83.83,0,0,0,.73-.87,3.13,3.13,0,0,0-.56-1.33,3,3,0,0,1-.53-1.41,2,2,0,0,1,.91-1.59,2,2,0,0,1,1.12-.5A.91.91,0,0,1,233.46,58.62Z"/><path class="cls-1" d="M236.19,58.7l-1.36,4c-.09.29,0,.38.11.38a5.56,5.56,0,0,0,1.73-1.36c.15,0,.24.09.21.27A5,5,0,0,1,234,64.15a.45.45,0,0,1-.41-.41,2.88,2.88,0,0,1,.21-.87l1.42-4.18H234a.39.39,0,0,1,.17-.42l1.21-.21.85-1.5a.51.51,0,0,1,.58.09l-.44,1.48H238a.44.44,0,0,1-.18.56Z"/></g></g></svg>