<?xml version="1.0" encoding="utf-8"?>
<!-- Generator: Adobe Illustrator 20.1.0, SVG Export Plug-In . SVG Version: 6.00 Build 0)  -->
<!DOCTYPE svg PUBLIC "-//W3C//DTD SVG 1.1//EN" "http://www.w3.org/Graphics/SVG/1.1/DTD/svg11.dtd">
<svg version="1.1" id="Layer_1" xmlns="http://www.w3.org/2000/svg" xmlns:xlink="http://www.w3.org/1999/xlink" x="0px" y="0px"
	 viewBox="0 0 129.5 129.5" style="enable-background:new 0 0 129.5 129.5;" xml:space="preserve">
<style type="text/css">
	.st0{fill:#890A27;}
</style>
<title>RTC Icons</title>
<path class="st0" d="M81.2,93.3c-8.4,6-18.7,9.5-29.8,9.5C23,102.8,0,79.8,0,51.4S23,0,51.4,0s51.4,23,51.4,51.4
	c0,11.1-3.5,21.4-9.5,29.8L127,115c3.3,3.3,3.3,8.6,0,11.9l-0.1,0.1c-3.3,3.3-8.7,3.3-11.9,0L81.2,93.3L81.2,93.3z M51.4,90.7
	c21.7,0,39.3-17.6,39.3-39.3S73.1,12.1,51.4,12.1S12.1,29.7,12.1,51.4S29.7,90.7,51.4,90.7L51.4,90.7z"/>
</svg>
