<svg style="position: absolute; width: 0; height: 0; overflow: hidden;" version="1.1" xmlns="http://www.w3.org/2000/svg" xmlns:xlink="http://www.w3.org/1999/xlink">
<defs>
	<symbol id="icon-rtc-res" viewBox="0 0 34 32">
		<title>rtc-res</title>
		<path class="path1" d="M16.996 0l-6.696 6.696v-2.678h-5.357v8.036l-4.717 4.724 0.61 0.61 16.16-16.197 16.168 16.19 0.61-0.61zM5.792 4.836h3.624v2.894l-3.616 3.281z"></path>
		<path class="path2" d="M4.944 15.93v16.070h9.374v-9.374h5.357v9.374h9.374v-16.070l-12.053-12.053-12.053 12.053zM28.268 31.196l-7.715-0.067 0.044-9.404-7.202-0.060-0.074 9.434h-7.522v-14.88l11.205-11.16 11.309 11.286s-0.044 14.821-0.044 14.85z"></path>
	</symbol>
	<symbol id="icon-rtc-biz" viewBox="0 0 25 32">
		<title>rtc-biz</title>
		<path class="path1" d="M24.752 31.921h-24.503v-31.874h24.503v31.874zM0.791 31.379h23.418v-30.798h-23.418v30.798z"></path>
		<path class="path2" d="M24.83 32h-24.66v-32h24.66v32zM0.335 31.843h24.361v-31.717h-24.361v31.717zM24.288 31.434h-23.576v-30.931h23.576v30.931zM0.869 31.277h23.261v-30.648h-23.261v30.648z"></path>
		<path class="path3" d="M21.121 8.259h-17.242v-4.519h17.242v4.511zM4.398 7.717h16.181v-3.434h-16.181v3.434z"></path>
		<path class="path4" d="M21.121 14.798h-17.242v-4.511h17.242v4.511zM4.398 14.255h16.181v-3.434h-16.181v3.434z"></path>
		<path class="path5" d="M21.121 21.336h-17.242v-4.511h17.242v4.511zM4.398 20.802h16.181v-3.434h-16.181v3.434z"></path>
		<path class="path6" d="M15.164 31.859h-5.336c-0.148 0-0.267-0.12-0.267-0.267 0 0 0 0 0 0v-7.607c0-0.148 0.12-0.267 0.267-0.267 0 0 0 0 0 0h5.336c0 0 0 0 0 0 0.148 0 0.267 0.12 0.267 0.267 0 0 0 0 0 0v7.599c0 0.002 0 0.005 0 0.008 0 0.148-0.12 0.267-0.267 0.267-0 0-0 0-0 0zM10.095 31.316h4.794v-7.073h-4.794v7.073z"></path>
	</symbol>
	<symbol id="icon-rtc-account" viewBox="0 0 33 32">
		<title>rtc-account</title>
		<path class="path1" d="M16.254 32c-0.002 0-0.003 0-0.005 0-5.025 0-9.508-2.319-12.438-5.944l-0.024-0.030-0.402-0.402h0.070c-2.005-2.644-3.211-5.99-3.211-9.617 0-8.84 7.166-16.007 16.007-16.007s16.007 7.166 16.007 16.007c0 3.761-1.297 7.219-3.469 9.951l0.025-0.033-0.077 0.085c-0.165 0.213-0.33 0.402-0.504 0.581-2.939 3.322-7.215 5.408-11.978 5.409zM4.73 25.856c4.112 3.919 8.417 5.704 12.791 5.302 5.078-0.464 8.796-3.725 10.148-5.101l-0.549-0.232c-1.932-0.827-5.163-2.203-6.84-2.705-0.487-0.155-0.487-0.471-0.487-1.175 0.036-0.703 0.224-1.355 0.53-1.934 0.29-0.629 0.52-1.389 0.639-2.185l0.006-0.163 0.116-0.085c0.484-0.648 0.817-1.436 0.932-2.293 0.102-0.303 0.159-0.623 0.159-0.957s-0.057-0.654-0.163-0.951c0.006-0.034-0.032-0.081-0.048-0.135-0.010-0.189-0.015-0.409-0.015-0.631 0-0.87 0.084-1.72 0.245-2.543-0.003-0.036 0.002-0.175 0.002-0.316 0-1.197-0.42-2.296-1.121-3.158-0.983-1.178-2.458-1.932-4.11-1.946h-1.293c-1.622 0.032-3.062 0.783-4.019 1.946-0.671 0.851-1.072 1.927-1.072 3.096 0 0.162 0.008 0.322 0.023 0.481 0.153 0.745 0.241 1.625 0.241 2.525 0 0.192-0.004 0.384-0.012 0.574-0.017 0.045-0.038 0.106-0.064 0.166-0.098 0.271-0.156 0.593-0.156 0.928s0.058 0.657 0.165 0.955c0.111 0.863 0.444 1.651 0.938 2.312l0.068 0.072v0.116c0.124 0.842 0.354 1.602 0.679 2.309 0.188 0.452 0.309 1.039 0.309 1.654 0 0.082-0.002 0.164-0.006 0.245 0.001 0.692 0.001 1.009-0.463 1.156-1.878 0.526-5.812 1.971-7.574 2.674zM20.574 22.408c1.778 0.541 4.939 1.894 6.848 2.705l0.773 0.332c2.053-2.573 3.294-5.872 3.294-9.461 0-8.413-6.82-15.234-15.234-15.234s-15.234 6.82-15.234 15.234c0 3.503 1.182 6.73 3.17 9.303 1.574-0.7 5.763-2.246 7.795-2.849 0-0.139 0-0.363 0-0.456 0.004-0.069 0.007-0.149 0.007-0.229 0-0.495-0.093-0.969-0.263-1.405-0.309-0.665-0.554-1.468-0.687-2.309-0.527-0.774-0.893-1.64-1.038-2.578-0.112-0.359-0.174-0.735-0.174-1.125 0-0.44 0.079-0.862 0.225-1.252l0.402 0.025-0.379-0.077c0.001-0.061 0.002-0.133 0.002-0.205 0-0.906-0.085-1.791-0.247-2.65-0.005-0.088-0.016-0.293-0.016-0.499 0-1.343 0.459-2.579 1.23-3.56 1.099-1.341 2.759-2.206 4.623-2.237l1.342-0c1.89 0.025 3.573 0.894 4.691 2.246 0.775 0.98 1.238 2.221 1.238 3.57 0 0.214-0.012 0.424-0.034 0.632-0.146 0.745-0.231 1.632-0.231 2.538 0 0.071 0.001 0.143 0.002 0.214l-0 0.059c0.139 0.368 0.219 0.794 0.219 1.239 0 0.385-0.060 0.757-0.172 1.105-0.145 0.946-0.51 1.811-1.041 2.551-0.134 0.871-0.381 1.669-0.723 2.414-0.224 0.388-0.39 0.913-0.438 1.472 0.045 0.138 0.045 0.355 0.053 0.486z"></path>
	</symbol>
	<symbol id="icon-rtc-location" viewBox="0 0 22 32">
		<title>rtc-location</title>
		<path class="path1" d="M11 32l-9.255-16.010c-0.892-1.526-1.418-3.36-1.418-5.316 0-5.895 4.779-10.674 10.674-10.674s10.674 4.779 10.674 10.674c0 1.957-0.526 3.79-1.445 5.367zM11 0.688c-0.007 0-0.014-0-0.022-0-5.474 0-9.911 4.437-9.911 9.911 0 1.834 0.498 3.551 1.366 5.025l8.567 14.851 8.592-14.89c0.846-1.429 1.346-3.149 1.346-4.986 0-5.474-4.437-9.911-9.911-9.911-0.009 0-0.019 0-0.028 0h0.001zM11 14.61c-2.202 0-3.987-1.785-3.987-3.987s1.785-3.987 3.987-3.987c2.202 0 3.987 1.785 3.987 3.987-0.009 2.197-1.79 3.975-3.987 3.98zM11 7.397c-1.781 0-3.225 1.444-3.225 3.225s1.444 3.225 3.225 3.225c1.781 0 3.225-1.444 3.225-3.225 0 0 0 0 0 0 0-1.783-1.443-3.228-3.225-3.233z"></path>
	</symbol>
	<symbol id="icon-rtc-menu" viewBox="0 0 32 32">
		<title>mobile-menu</title>
		<path class="path1" d="M28.815 8.14h-25.63c-0.59 0-1.068-0.478-1.068-1.068s0.478-1.068 1.068-1.068h25.63c0.59 0 1.068 0.478 1.068 1.068s-0.478 1.068-1.068 1.068z"></path>
		<path class="path2" d="M28.815 17.068h-25.63c-0.59 0-1.068-0.478-1.068-1.068s0.478-1.068 1.068-1.068h25.63c0.59 0 1.068 0.478 1.068 1.068s-0.478 1.068-1.068 1.068z"></path>
		<path class="path3" d="M28.815 25.996h-25.63c-0.59 0-1.068-0.478-1.068-1.068s0.478-1.068 1.068-1.068h25.63c0.59 0 1.068 0.478 1.068 1.068s-0.478 1.068-1.068 1.068z"></path>
	</symbol>
	<symbol id="icon-rtc-search" viewBox="0 0 60 60">
		<title>search</title>
		<path class="path1" d="M49.07,50.46,37.35,38.73A16.7,16.7,0,1,1,40,36.08L51.73,47.81ZM37.4,37.72,49.07,49.4l1.59-1.59L39,36.13l.22-.26a16,16,0,1,0-2.08,2.08ZM26.95,40.65a15,15,0,1,1,15-15A15,15,0,0,1,26.95,40.65Zm0-29.2A14.23,14.23,0,1,0,41.17,25.68,14.24,14.24,0,0,0,26.95,11.45Z"/>
	</symbol>
	<symbol id="dunham-logo-mark-d" viewBox="0 0 150 180">
		<title>Dunham Logo Mark D</title>
		<polygon class="cls-1" points="110.68 69.06 84.35 69.06 84.35 69.07 83.35 69.07 83.35 175.23 85.35 175.23 85.35 71.36 110.68 71.36 110.68 69.06"/><path class="cls-2" d="M126.68,39C114.76,28.88,101,24.22,85.35,22.25V0h-2V22h0V30.2h0V58.14h-3.5V29.35h0V21.67h0V0l-5,4.25v17C70.51,21.08,66,21,61.44,21s-24.69.6-29.91.6C13.45,21.58,4.62,21,2,21c-.8,0-1.41.2-1.41,1V27.4c0,1.2.6,1.41,1.61,1.41h11c5.42,0,8,.8,8.63,5.62.4,3.41,1,31.92,1,37.14V86.63c0,15.66-.8,60.83-1.41,65-.4,3.21-2.61,4.82-6.42,4.82H1.61c-1,0-1.61.4-1.61,1.2v5.22c0,1,.4,1.41,1.41,1.41,2.81,0,10.84-.6,28.31-.6,9,0,24.29.6,36.94.6,2.45,0,5.21,0,8.2-.09v15.1l5-4.1V63.89h31l5-5.75H85.35V30.78c11.1,3.34,20.13,8.94,26.48,15.9,9.64,10.64,16.46,28.71,16.46,44.37,0,18.27-6.22,34.73-14.66,45.17a56.38,56.38,0,0,1-30.28,19.52v8c14.66-1.34,32.26-5.81,45.74-20.7C142.34,128.59,149,113.33,149,90.24,149,67,139.73,50.29,126.68,39ZM66.45,157.9c-10,0-18.07-2.21-21.28-6.42a18.85,18.85,0,0,1-3.41-11.24c-.2-12.45-.4-46.58-.4-49.19V76.79c0-3.21,0-29.51.2-37.95.2-4.42,1-7.63,3.81-9.44,3.41-2,11.64-2,16.06-2a87.5,87.5,0,0,1,13.42,1V58.14h-23l-5,5.75h28v5.17h-28v2.3h28v86A67,67,0,0,1,66.45,157.9Z"/>
	</symbol>
	<symbol id="icon-location" viewBox="0 0 150 150">
		<title>location icon</title>
		<path class="cls-1" d="M75,149.9l-2.94-3.18c-2.19-2.38-53.75-58.58-53.75-88.6C18.31,27.17,43.74,2,75,2s56.69,25.18,56.69,56.12c0,30-51.55,86.23-53.75,88.6ZM75,10C48.15,10,26.31,31.58,26.31,58.12c0,23.13,37.75,67.51,48.69,79.9,10.95-12.39,48.69-56.77,48.69-79.9C123.69,31.58,101.85,10,75,10Zm0,81.63A33.66,33.66,0,1,1,109,58,33.85,33.85,0,0,1,75,91.62Zm0-59.31A25.66,25.66,0,1,0,101,58,25.85,25.85,0,0,0,75,32.31Z"/>
	</symbol>
	<symbol id="icon-hamburger" viewBox="0 0 150 150">
		<titl>hamburger icon</titl>
		<path class="cls-1" d="M125.1,99H24.9V91H125.1Zm0-20H24.9V71H125.1Zm0-20H24.9V51H125.1Z"/>
	</symbol>
	<symbol id="icon-search-mobile-menu" viewBox="0 0 128 128">
		<path class="" d="M81.2,93.3c-8.4,6-18.7,9.5-29.8,9.5C23,102.8,0,79.8,0,51.4S23,0,51.4,0s51.4,23,51.4,51.4
		c0,11.1-3.5,21.4-9.5,29.8L127,115c3.3,3.3,3.3,8.6,0,11.9l-0.1,0.1c-3.3,3.3-8.7,3.3-11.9,0L81.2,93.3L81.2,93.3z M51.4,90.7
		c21.7,0,39.3-17.6,39.3-39.3S73.1,12.1,51.4,12.1S12.1,29.7,12.1,51.4S29.7,90.7,51.4,90.7L51.4,90.7z"/>
	</symbol>
	<symbol id="back-to-top" viewBox="0 0 60 60">
		<title>back to top</title>
		<circle  class="icon-bg" cx="30" cy="30" r="30"/>
		<polygon class="icon-fg" points="38.87 30.09 30.34 19.18 21.82 30.09 28.07 30.09 21.82 38.09 38.87 38.09 32.62 30.09 38.87 30.09"/>
	</symbol>
</defs>
</svg>
